<?xml version="1.0" standalone="no"?>
<!DOCTYPE svg PUBLIC "-//W3C//DTD SVG 20010904//EN"
 "http://www.w3.org/TR/2001/REC-SVG-20010904/DTD/svg10.dtd">
<svg version="1.0" xmlns="http://www.w3.org/2000/svg"
 width="1024.000000pt" height="1024.000000pt" viewBox="0 0 1024.000000 1024.000000"
 preserveAspectRatio="xMidYMid meet">

<g transform="translate(0.000000,1024.000000) scale(0.100000,-0.100000)"
fill="#E5E4E2" stroke="none">
<path d="M7854 9955 c-76 -16 -195 -71 -253 -117 l-45 -34 -75 18 c-53 13
-110 18 -187 17 -103 -1 -114 0 -150 24 -73 48 -158 70 -290 75 -95 3 -134 1
-180 -13 -148 -43 -270 -146 -312 -265 -12 -36 -22 -73 -22 -84 0 -16 -5 -17
-32 -12 -546 113 -980 152 -1413 127 -254 -15 -337 -25 -565 -67 -606 -113
-1166 -345 -1710 -707 -271 -181 -442 -321 -694 -567 -271 -265 -444 -476
-677 -825 -502 -754 -774 -1771 -721 -2697 30 -515 123 -965 294 -1428 77
-208 129 -325 292 -664 l86 -178 -1 -97 c0 -141 16 -230 63 -344 96 -237 184
-311 468 -392 73 -21 163 -39 217 -44 107 -9 134 -24 308 -166 501 -411 1121
-729 1770 -910 598 -167 1225 -198 1870 -95 421 68 870 210 1261 400 371 180
608 334 931 607 l122 103 96 10 c53 5 103 14 111 21 8 6 43 18 79 25 89 19
159 56 215 115 64 67 97 156 140 384 16 84 21 97 92 200 413 601 679 1233 803
1900 87 471 98 995 29 1465 -81 553 -279 1148 -483 1450 l-50 75 24 25 25 25
31 -38 c17 -20 34 -37 38 -37 4 0 19 26 34 58 28 58 47 139 47 197 0 26 7 36
38 56 l37 24 -1 170 c-1 146 -4 179 -22 232 -26 74 -70 151 -125 216 -36 43
-39 51 -28 73 19 43 13 59 -31 84 -87 47 -227 151 -268 197 -60 68 -132 181
-197 308 l-56 109 40 36 40 35 -18 30 c-36 58 -181 205 -244 247 l-65 42 0 56
c-1 208 -125 423 -294 505 -110 54 -260 69 -392 40z m304 -135 c21 -8 32 -19
32 -31 0 -23 -16 -24 -61 -5 -19 8 -68 20 -110 28 -72 14 -80 13 -118 -5 -42
-20 -125 -93 -154 -136 l-16 -24 -66 18 c-36 9 -65 21 -65 25 0 16 76 71 139
102 40 19 90 33 135 38 89 11 241 5 284 -10z m-1141 -23 c73 -25 159 -74 148
-85 -4 -4 -52 -17 -108 -29 -102 -22 -102 -22 -117 -2 -8 11 -23 30 -33 42
l-18 22 12 -25 12 -25 -25 23 c-13 12 -31 22 -39 22 -12 0 -12 2 0 9 11 7 5
11 -21 16 -32 6 -74 2 -202 -21 -45 -8 -43 7 4 31 96 50 275 60 387 22z m1077
-31 l39 -16 -66 -60 c-35 -33 -73 -77 -84 -99 l-19 -39 -55 23 c-30 12 -75 30
-102 39 l-47 18 40 48 c22 27 62 63 88 80 43 29 52 31 107 27 33 -2 77 -12 99
-21z m174 -25 c47 -35 98 -105 123 -171 18 -47 49 -195 49 -233 0 -19 -1 -20
-20 -2 -11 10 -34 40 -51 67 -17 27 -43 55 -56 62 -19 10 -32 33 -53 98 -15
47 -34 95 -42 107 -15 21 -16 20 -38 -36 -44 -117 -34 -106 -95 -100 -73 7
-80 13 -59 45 29 46 168 189 185 191 9 0 34 -12 57 -28z m-1448 -7 c23 -5 42
-20 66 -53 18 -25 34 -51 34 -57 0 -7 -26 -13 -67 -16 -63 -4 -70 -3 -101 23
-17 16 -50 39 -72 51 -22 13 -40 26 -40 30 0 3 28 11 63 16 85 13 81 13 117 6z
m580 -5 c119 -19 96 -31 -52 -27 -86 2 -137 7 -135 13 7 22 98 29 187 14z
m-745 -66 l85 -67 -66 -18 c-36 -10 -79 -25 -94 -33 -47 -24 -53 -17 -22 21
23 27 28 42 23 57 -14 37 -29 30 -72 -35 -49 -70 -64 -61 -34 20 15 37 78 122
91 122 2 0 42 -30 89 -67z m1116 4 c-13 -12 -20 -15 -16 -7 14 26 28 41 33 35
3 -3 -5 -16 -17 -28z m-175 -36 c137 -28 259 -64 343 -102 60 -27 72 -37 89
-73 11 -22 22 -53 26 -69 l6 -27 -48 30 c-83 51 -213 107 -302 132 -74 20
-107 23 -245 22 -137 -1 -173 -5 -250 -26 l-90 -25 195 1 c121 1 224 -4 270
-12 286 -51 506 -158 638 -310 74 -85 148 -204 171 -275 18 -54 43 -187 36
-195 -1 -1 -10 19 -20 45 -47 125 -155 267 -255 336 l-45 31 26 -34 c167 -225
181 -256 273 -610 31 -118 67 -250 80 -292 14 -43 22 -78 20 -78 -3 0 -25 42
-48 93 -24 50 -74 158 -111 240 -38 81 -70 146 -71 144 -2 -2 6 -32 17 -67 43
-138 33 -380 -21 -522 -11 -28 -18 -53 -16 -55 2 -2 24 36 49 84 l46 88 1 -50
c0 -91 -52 -345 -71 -345 -3 0 -12 34 -20 75 -8 45 -16 70 -21 62 -19 -29 -52
-129 -67 -206 l-18 -84 -18 87 c-16 74 -17 95 -7 130 45 154 55 202 59 293 7
125 -9 255 -48 405 -66 252 -138 381 -273 485 -74 58 -104 61 -56 7 49 -56
101 -174 125 -284 l8 -35 -49 45 c-27 25 -69 62 -94 82 -46 37 -240 159 -273
171 -10 4 21 -37 69 -91 83 -92 144 -175 144 -195 0 -33 -241 146 -376 278
-123 121 -123 121 -37 -49 42 -83 146 -250 181 -289 8 -9 13 -20 10 -23 -11
-10 -164 133 -221 207 -68 90 -130 220 -150 314 -8 39 -17 63 -21 55 -11 -29
-55 -176 -70 -235 -24 -98 -39 -271 -32 -395 l5 -115 -19 54 c-57 156 -63 405
-14 586 15 55 28 110 28 122 1 11 4 19 7 17 4 -2 14 8 24 22 16 24 16 25 -3
15 -44 -23 -108 -103 -175 -215 -113 -192 -146 -289 -156 -466 -5 -88 -9 -105
-23 -108 -33 -6 -62 150 -63 344 l0 151 37 73 c44 85 23 74 -48 -27 -96 -134
-127 -236 -130 -433 -2 -109 -8 -166 -24 -228 -17 -68 -21 -107 -18 -208 2
-68 2 -124 1 -124 -1 0 -20 30 -41 68 -110 188 -118 405 -26 709 3 10 -8 -7
-24 -37 -36 -67 -92 -221 -93 -258 -1 -16 -5 -6 -10 23 -13 72 5 174 47 264
31 69 32 73 9 46 -39 -47 -132 -242 -158 -336 l-25 -84 -7 68 c-18 167 53 387
163 502 26 28 67 72 92 99 l45 50 -40 -29 c-22 -16 -64 -51 -92 -79 -29 -28
-53 -47 -53 -43 0 3 11 31 24 61 34 76 95 163 149 214 26 23 42 42 36 42 -26
0 -99 -48 -156 -103 -35 -33 -63 -54 -63 -45 0 30 33 125 63 181 41 78 113
141 222 193 133 65 221 84 384 84 126 1 134 2 104 15 -18 8 -33 18 -33 24 0
11 71 27 180 41 113 14 320 5 436 -19z m580 -132 c32 -6 64 -15 69 -21 7 -7 3
-8 -12 -4 -32 10 -87 -17 -118 -59 l-28 -36 -19 58 c-10 32 -18 61 -18 66 0
10 57 9 126 -4z m-2776 -9 c188 -13 298 -25 503 -56 191 -29 306 -50 313 -57
3 -3 -4 -23 -15 -45 -11 -21 -25 -59 -31 -84 l-12 -45 -136 24 c-357 60 -603
78 -982 70 -280 -6 -429 -20 -625 -57 -392 -76 -726 -185 -1053 -346 l-193
-94 20 -28 c29 -37 292 -405 377 -524 37 -54 72 -98 76 -98 4 0 53 24 110 54
316 167 721 281 1158 327 270 29 831 11 1055 -34 l60 -12 6 -97 c4 -53 10
-102 14 -109 9 -13 -20 -11 -215 11 -47 5 -200 13 -340 16 -375 10 -694 -17
-950 -80 -675 -167 -1300 -556 -1774 -1106 -73 -84 -109 -130 -206 -260 -31
-41 -121 -186 -178 -285 -185 -324 -308 -676 -372 -1065 -21 -129 -26 -210
-12 -209 4 0 45 26 91 57 l84 57 47 190 c75 298 148 493 286 766 326 646 862
1160 1536 1474 356 167 691 246 1153 276 247 15 498 3 899 -43 l109 -12 24
-56 c27 -60 39 -72 65 -66 13 3 26 -11 47 -50 16 -30 28 -54 27 -54 -1 0 -49
7 -107 15 -127 17 -424 42 -619 50 -258 11 -683 -26 -928 -81 -496 -111 -992
-369 -1357 -707 -406 -375 -683 -811 -835 -1317 -52 -173 -71 -260 -57 -260 7
1 59 24 116 53 l105 52 23 85 c51 181 181 470 293 651 172 277 449 571 746
791 285 211 640 378 987 462 380 93 979 106 1397 30 74 -13 240 -53 248 -59 3
-3 -62 -119 -90 -158 -12 -18 -30 -38 -40 -45 -10 -7 -21 -27 -26 -45 l-8 -32
-135 -2 c-74 -1 -244 -7 -379 -13 -660 -29 -1018 -100 -1154 -227 -16 -15 -33
-27 -38 -25 -4 1 -7 -2 -6 -6 2 -4 -74 -82 -168 -173 -156 -149 -252 -247
-604 -614 -124 -129 -249 -267 -320 -354 -24 -29 -46 -48 -48 -41 -2 6 13 31
35 53 58 62 181 215 153 192 -20 -17 -23 -18 -17 -2 18 45 19 53 8 37 -9 -13
-11 -12 -12 5 -1 11 -2 25 -2 32 1 16 -77 41 -152 49 -73 8 -184 -9 -240 -37
-22 -10 -31 -16 -20 -13 121 38 287 51 319 25 18 -15 56 -112 56 -142 0 -26
-87 -137 -138 -177 l-37 -29 -68 13 c-127 24 -193 74 -223 168 -11 37 -13 38
-13 12 -1 -42 46 -121 89 -150 20 -13 57 -30 81 -36 24 -6 61 -16 82 -21 22
-6 35 -14 31 -20 -3 -6 7 -4 22 3 16 8 37 13 47 11 9 -3 17 1 17 7 0 13 466
515 815 878 136 142 383 365 444 403 96 58 297 99 586 119 122 8 770 26 1083
30 27 0 32 4 32 24 0 72 40 108 152 137 26 7 45 15 43 18 -1 3 16 7 39 8 l41
2 2 -42 c2 -63 50 -176 77 -182 11 -2 113 -7 226 -10 284 -9 445 -20 735 -50
304 -31 468 -52 558 -71 38 -8 82 -14 98 -14 17 0 43 -7 59 -15 17 -9 33 -16
37 -16 15 -1 16 -9 2 -9 -8 -1 -3 -7 10 -14 14 -8 32 -11 40 -8 9 3 12 1 8 -5
-4 -7 8 -20 26 -32 45 -28 127 -116 160 -171 36 -63 107 -249 160 -420 38
-124 54 -185 82 -326 4 -19 12 -21 77 -23 121 -3 220 -22 290 -57 64 -32 82
-61 76 -122 -8 -80 -65 -138 -173 -176 -74 -27 -299 -34 -383 -12 -35 9 -66
16 -69 16 -2 0 -3 -13 -1 -29 2 -22 -8 -44 -40 -86 -23 -32 -42 -63 -42 -69 0
-14 56 -69 87 -85 43 -22 63 7 103 152 l17 62 64 -3 c114 -6 251 19 351 62 13
6 23 -5 47 -53 66 -130 96 -344 58 -416 -16 -31 -108 -127 -115 -121 -2 3 1
36 7 75 6 38 10 112 10 163 l-2 93 -8 -110 c-4 -60 -13 -138 -20 -173 l-12
-64 -76 -34 c-76 -35 -129 -54 -208 -74 -32 -8 -43 -16 -43 -30 0 -10 5 -22
12 -26 6 -4 8 -3 4 4 -9 14 -1 18 96 46 108 32 265 105 311 146 l37 32 0 -60
c0 -55 -3 -63 -27 -80 -58 -41 -171 -91 -238 -106 -68 -15 -69 -16 -18 -13
l51 4 6 -51 c3 -28 9 -134 13 -236 6 -155 8 -175 15 -125 7 57 4 182 -8 342
l-6 73 55 24 c30 13 58 29 61 35 4 6 12 9 17 6 5 -4 22 3 38 14 16 12 31 21
33 21 9 0 8 -317 -2 -400 -14 -122 -58 -290 -76 -290 -8 0 -14 5 -14 10 0 6
-6 10 -12 10 -7 -1 -3 -9 10 -19 24 -20 30 -37 10 -25 -7 4 -6 -1 3 -12 9 -10
24 -34 33 -52 l17 -33 -43 -64 c-30 -47 -48 -65 -64 -65 -21 0 -21 -2 -9 -37
20 -60 0 -217 -43 -343 -3 -8 9 3 25 25 17 22 50 58 73 80 23 22 53 62 65 88
24 50 35 46 35 -15 0 -25 -13 -43 -66 -94 -36 -35 -69 -64 -74 -64 -4 0 -42
-56 -84 -124 -107 -172 -126 -185 -71 -49 46 112 89 273 74 273 -5 0 -9 -4 -9
-9 0 -5 -34 -58 -75 -119 -42 -61 -90 -140 -108 -174 -26 -50 -38 -64 -59 -66
l-26 -3 2 99 c0 57 5 97 10 94 5 -3 6 13 1 39 -11 57 -12 184 -3 229 6 25 5
31 -2 20 -8 -11 -9 -5 -5 22 3 21 7 55 10 75 11 77 17 92 36 98 16 5 19 16 19
73 0 81 -25 250 -45 313 -16 46 -47 89 -66 89 -5 0 -20 -22 -33 -50 l-23 -49
24 -71 c44 -130 46 -202 29 -860 -3 -85 -1 -135 3 -110 5 35 8 16 13 -90 4
-74 7 -160 7 -190 0 -30 3 -72 6 -92 10 -54 -6 -48 -59 23 -69 92 -114 179
-125 240 -8 41 -9 15 -5 -106 3 -88 8 -232 10 -320 4 -188 13 -270 26 -257 15
15 47 189 58 316 6 66 13 122 16 125 11 12 24 -26 20 -59 -3 -19 -7 -71 -10
-115 -4 -68 -3 -73 5 -35 5 25 13 73 17 107 l7 61 23 -19 c23 -18 23 -20 13
-111 -12 -99 -50 -258 -77 -323 -54 -132 -63 -145 -93 -145 -36 0 -43 10 -66
88 -10 34 -20 60 -22 58 -7 -6 17 -267 25 -283 7 -12 16 1 38 56 16 39 32 71
36 71 13 0 -35 -104 -75 -164 -84 -124 -266 -292 -420 -385 -77 -47 -117 -60
-117 -39 0 9 49 74 109 146 142 172 174 212 170 216 -2 2 -53 -29 -114 -70
-182 -121 -453 -248 -704 -330 -265 -86 -708 -167 -1091 -200 -232 -19 -250
-22 -250 -38 0 -16 36 -49 76 -69 112 -57 403 -44 1034 44 563 79 931 169
1129 275 109 59 224 138 256 176 23 27 25 28 25 8 0 -64 -24 -116 -81 -172
-58 -59 -97 -73 -127 -48 -6 6 -10 7 -7 4 11 -16 -34 -33 -83 -34 -32 0 -76
-10 -113 -25 -80 -32 -234 -75 -444 -124 -267 -62 -498 -101 -900 -150 -533
-66 -679 -65 -763 2 -22 18 -86 22 -327 22 -137 0 -285 -6 -365 -15 -264 -29
-546 -12 -1485 90 -346 38 -542 56 -735 70 -152 10 -476 34 -615 45 l-70 6 90
-54 c50 -30 128 -78 175 -107 175 -109 284 -172 410 -235 755 -378 1493 -510
2380 -424 482 46 1010 209 1525 469 l230 116 184 22 c101 13 186 21 188 19 2
-2 -53 -42 -122 -89 -68 -47 -121 -89 -117 -93 4 -5 1 -5 -5 -1 -7 4 -32 -6
-55 -22 -136 -91 -376 -215 -602 -311 -291 -124 -772 -252 -1111 -295 -720
-92 -1478 -9 -2115 230 -282 106 -735 347 -997 531 -128 89 -302 225 -303 235
0 4 8 9 18 12 9 4 35 22 57 42 l40 36 -41 -31 c-61 -45 -90 -54 -164 -46 -137
13 -470 111 -624 183 -93 44 -167 106 -198 165 -29 57 -18 53 20 -6 57 -90
125 -125 391 -202 282 -81 429 -102 491 -70 37 19 41 58 8 79 -13 8 -93 35
-178 61 -376 113 -577 229 -730 421 -50 62 -80 121 -118 229 -6 17 -22 58 -37
93 -16 39 -28 90 -32 135 -4 56 -16 98 -54 187 -344 817 -473 1383 -473 2075
0 672 171 1396 465 1977 495 975 1364 1768 2377 2167 396 155 758 241 1182
280 63 6 131 13 150 14 80 8 375 6 510 -3z m2905 -60 c26 -28 28 -32 21 -92
-3 -35 -9 -93 -12 -130 -7 -70 -13 -79 -34 -53 -7 9 -15 13 -18 10 -9 -9 -31
16 -26 29 3 8 -29 41 -75 80 l-80 67 42 38 c53 49 106 81 133 81 11 0 33 -13
49 -30z m76 -106 c7 -9 40 -29 73 -46 33 -17 76 -41 96 -53 36 -23 176 -172
169 -179 -2 -2 -59 13 -126 35 -67 21 -151 41 -187 45 l-66 7 7 71 c4 39 8 86
8 104 0 36 6 40 26 16z m84 -306 c18 -40 36 -87 39 -105 9 -39 -11 -55 -20
-16 -4 15 -20 61 -35 101 -16 40 -29 77 -29 82 0 24 14 5 45 -62z m155 27 c40
-10 45 -15 51 -46 14 -79 123 -297 222 -442 84 -123 140 -183 226 -239 91 -59
66 -64 -46 -8 -129 64 -236 184 -430 482 -71 110 -151 246 -171 290 -2 4 21 0
50 -9 29 -9 73 -21 98 -28z m-1739 -323 c12 -81 44 -183 78 -251 12 -23 20
-45 18 -47 -3 -3 -22 2 -43 10 -22 8 -65 22 -96 30 -37 11 -59 22 -63 35 -16
52 31 282 73 354 l17 29 2 -44 c2 -24 8 -76 14 -116z m300 116 c28 -55 95
-142 151 -194 38 -37 162 -132 227 -174 l23 -16 -54 -41 c-57 -43 -68 -68 -36
-79 20 -6 23 -4 99 58 41 33 59 39 59 18 0 -3 -22 -23 -49 -44 -31 -23 -49
-44 -48 -56 1 -20 2 -20 63 21 l42 28 6 -31 c3 -17 6 -41 6 -55 l0 -24 29 22
c37 28 65 22 69 -14 4 -35 -11 -54 -50 -62 l-31 -7 6 -60 c3 -33 8 -62 10 -65
3 -3 66 5 140 18 131 23 134 24 134 49 0 14 4 81 8 149 7 107 10 121 22 105
26 -35 12 -301 -24 -444 -47 -194 -94 -259 -288 -405 -156 -118 -142 -114
-266 -70 -104 37 -327 140 -363 167 -11 8 -20 24 -21 35 0 11 -13 31 -28 44
-33 28 -67 125 -41 115 10 -4 12 -2 7 7 -4 6 -25 37 -45 68 -39 60 -110 200
-105 206 2 2 17 -7 33 -19 l29 -23 -23 35 c-53 80 -66 117 -54 145 9 19 18 25
35 23 18 -2 25 -14 37 -60 14 -53 16 -56 34 -42 25 18 86 20 68 2 -8 -8 -9
-15 -1 -25 18 -21 2 -43 -32 -43 -36 0 -36 -2 17 -97 22 -39 41 -63 52 -63 15
0 52 8 171 36 23 5 23 6 16 87 -4 45 -12 98 -19 118 l-13 36 36 -20 c23 -14
32 -16 25 -7 -6 8 -28 38 -49 65 -52 69 -104 180 -115 248 -11 67 0 144 37
272 26 92 31 105 38 105 3 0 14 -19 26 -42z m422 -163 c80 -52 99 -75 62 -75
-13 0 -35 -29 -35 -46 0 -3 15 5 34 19 30 23 37 25 65 14 17 -6 31 -14 30 -17
0 -3 -23 -20 -51 -39 l-51 -34 -29 34 c-37 44 -158 223 -158 234 0 5 10 -1 23
-12 12 -12 61 -46 110 -78z m984 -9 c32 -24 103 -86 158 -136 156 -144 193
-174 300 -240 208 -129 310 -241 356 -389 22 -72 20 -92 -4 -33 -31 76 -83
119 -281 227 -37 20 -103 69 -144 109 -106 99 -59 26 99 -155 107 -122 148
-207 174 -357 11 -63 13 -112 8 -177 l-8 -90 -6 115 c-6 97 -12 128 -38 194
-52 129 -107 202 -294 388 -153 152 -183 188 -251 296 -77 122 -146 255 -146
279 0 21 15 15 77 -31z m-747 -135 c19 -38 14 -65 -7 -38 -11 13 -25 77 -18
77 3 0 14 -18 25 -39z m-33 -35 c-5 -14 -108 -66 -119 -60 -17 11 -7 24 32 44
22 11 46 29 53 40 11 19 13 19 25 3 7 -9 11 -22 9 -27z m112 -70 c19 -23 28
-110 19 -177 -12 -90 -43 -131 -85 -114 -16 6 -16 8 4 16 58 22 77 111 48 222
-8 32 -15 60 -15 62 0 10 18 4 29 -9z m-1157 -47 c18 -48 23 -99 9 -99 -13 0
-64 127 -56 140 12 20 29 5 47 -41z m180 11 c107 -35 126 -44 141 -70 21 -35
17 -36 -63 -15 -30 8 -90 18 -132 21 -83 7 -80 5 -93 72 -8 41 -7 41 147 -8z
m1713 -161 l150 -151 -85 42 c-47 23 -113 62 -147 86 -64 46 -65 47 -76 142
-2 17 -1 32 2 32 4 0 74 -68 156 -151z m-564 90 c51 -101 38 -409 -26 -609
-27 -83 -65 -242 -60 -250 2 -4 -4 -26 -15 -48 -11 -23 -20 -47 -20 -54 1 -20
40 68 74 165 17 49 35 89 41 90 10 2 65 -173 59 -185 -3 -4 -18 -2 -35 4 -16
6 -32 8 -35 5 -5 -5 125 -47 148 -47 53 -1 316 -196 385 -286 24 -32 27 -44
26 -115 0 -44 -2 -82 -5 -84 -2 -2 -35 25 -72 60 -38 36 -73 62 -77 59 -5 -3
-8 0 -7 7 2 8 -7 14 -20 15 -12 1 -26 5 -30 9 -4 5 2 5 13 2 14 -5 12 -1 -7
14 -16 11 -28 30 -28 42 0 20 -1 20 -13 3 -13 -18 -16 -18 -64 -2 -27 9 -58
14 -69 10 -13 -4 -15 -3 -6 3 9 7 -4 13 -42 22 -51 11 -343 51 -376 51 -8 0 5
20 31 48 36 36 51 64 69 120 21 66 37 90 42 60 1 -7 5 25 8 72 12 147 40 401
56 502 8 54 17 156 21 228 3 71 8 130 9 130 2 0 13 -19 25 -41z m-1471 -42 c0
-8 27 -59 60 -114 56 -94 76 -143 161 -398 21 -62 39 -226 39 -350 -1 -65 -2
-68 -16 -50 -8 11 -26 58 -40 105 -37 126 -33 118 -49 97 -7 -10 -16 -40 -20
-66 -11 -84 -19 -82 -70 19 -44 87 -85 228 -84 290 0 25 0 25 16 -5 29 -51 27
-3 -1 54 -26 50 -33 104 -18 129 11 16 27 -1 80 -89 47 -78 72 -145 72 -197 0
-50 16 -75 23 -36 20 106 19 120 -16 191 -78 155 -172 433 -146 433 5 0 9 -6
9 -13z m1915 -296 c114 -209 136 -276 169 -519 9 -62 16 -132 15 -155 -1 -31
-5 -19 -14 43 -30 206 -70 321 -221 627 -102 209 -122 275 -55 181 22 -30 70
-110 106 -177z m48 190 c99 -67 292 -175 350 -193 34 -11 71 -24 82 -28 37
-16 -23 -11 -130 9 -55 11 -140 25 -190 31 -49 6 -100 13 -112 16 -24 5 -63
66 -46 71 6 2 7 22 2 51 -14 85 -15 84 44 43z m-1430 -121 c-7 -25 -37 -42
-66 -38 -20 3 -18 6 18 30 49 33 55 34 48 8z m1592 -103 c5 -5 -29 -257 -33
-252 -3 2 -21 55 -42 117 -21 62 -41 122 -45 132 -8 18 -5 19 55 13 35 -4 64
-8 65 -10z m135 -38 c8 -4 28 -21 44 -38 l29 -30 -24 -46 c-13 -24 -29 -47
-36 -49 -20 -8 -98 57 -101 84 -2 13 1 41 7 62 11 35 14 38 39 32 15 -4 34
-10 42 -15z m184 -196 c11 -22 36 -118 36 -138 0 -2 -22 20 -50 49 -27 29 -50
56 -50 60 0 12 32 56 41 56 5 0 15 -12 23 -27z m-746 -23 c-1 -22 -6 -40 -11
-40 -5 0 -6 7 -3 16 3 9 6 27 6 40 0 13 2 24 5 24 3 0 5 -18 3 -40z m221 -105
c6 -32 11 -71 11 -86 0 -26 -3 -24 -58 33 l-59 61 30 61 29 61 18 -35 c10 -20
23 -62 29 -95z m-590 28 c-19 -120 -69 -255 -125 -345 -28 -45 -30 -55 -6 -37
15 13 16 12 3 -3 -12 -16 -27 -17 -125 -13 -150 7 -159 11 -105 42 93 52 259
238 284 316 17 51 45 87 70 87 9 0 10 -12 4 -47z m-990 -71 l-1 -97 -18 50
c-21 58 -25 126 -8 143 22 22 28 0 27 -96z m94 53 c42 -21 46 -30 17 -38 -26
-7 -25 -32 0 -101 16 -41 37 -70 87 -117 37 -34 82 -71 100 -81 18 -11 33 -21
33 -23 0 -2 -28 -1 -62 3 -51 4 -67 10 -83 30 -45 56 -96 151 -114 212 -22 75
-33 143 -23 138 4 -2 24 -12 45 -23z m778 -56 c-24 -32 -27 -44 -8 -33 8 5 7
2 -2 -9 -8 -10 -16 -15 -19 -12 -7 7 -32 -15 -32 -27 0 -6 8 -4 18 3 14 11 13
9 -2 -9 -11 -12 -21 -20 -24 -17 -2 2 -34 -22 -71 -54 -79 -69 -178 -134 -186
-121 -3 5 -8 39 -12 76 -6 65 -6 66 15 60 30 -10 93 26 227 128 96 74 110 82
113 64 2 -11 -6 -33 -17 -49z m467 12 c96 -74 138 -117 199 -206 31 -45 60
-75 81 -84 30 -14 52 -54 52 -98 0 -21 -9 -16 -97 58 -116 98 -169 132 -255
165 -84 32 -98 45 -98 90 0 48 20 134 31 134 6 0 45 -27 87 -59z m-1660 -11
c13 -37 12 -37 -91 -61 -45 -10 -93 -21 -106 -25 -21 -6 -22 -5 -12 14 13 25
92 81 129 92 52 16 69 12 80 -20z m282 -87 c8 -37 9 -57 1 -71 -10 -20 -10
-20 19 -5 17 8 30 20 31 26 0 7 5 1 10 -12 14 -36 20 -20 8 23 -21 77 -3 81
20 4 13 -43 39 -101 58 -129 l34 -52 -62 7 c-34 3 -80 6 -101 6 l-40 0 5 75
c2 41 2 73 -2 71 -3 -2 -6 27 -6 64 0 75 6 73 25 -7z m1100 30 c-11 -17 -11
-17 -6 0 3 10 6 24 7 30 0 9 2 9 5 0 3 -7 0 -20 -6 -30z m-1318 -54 c15 -20
28 -45 28 -55 0 -30 -20 -94 -29 -94 -26 0 -71 168 -57 207 7 17 8 17 18 -2 6
-11 24 -36 40 -56z m656 29 c42 -18 80 -37 84 -43 9 -12 11 -105 2 -105 -12 0
-141 123 -158 150 -9 17 -15 30 -11 30 3 0 40 -14 83 -32z m1698 -238 c221
-352 352 -679 448 -1115 89 -399 120 -669 120 -1025 0 -362 -27 -599 -109
-965 -80 -357 -166 -600 -338 -956 -99 -204 -277 -515 -305 -533 -20 -12 70
463 97 511 36 64 146 293 186 390 36 86 41 92 72 98 24 4 55 26 102 73 90 90
104 122 96 220 -10 117 -8 202 5 377 7 88 16 338 20 555 4 217 12 420 18 450
11 64 1 178 -24 260 -9 30 -36 95 -61 145 -41 81 -44 92 -34 120 6 17 11 55
11 83 0 70 -70 364 -127 532 -72 215 -255 577 -287 567 -6 -2 -38 -58 -71
-124 -33 -67 -62 -122 -65 -122 -3 0 -19 24 -37 53 -31 52 -33 57 -37 192 -3
76 -8 149 -11 161 -6 18 -2 25 16 32 13 5 33 26 44 47 34 66 88 158 103 176
13 16 17 14 52 -30 21 -26 73 -103 116 -172z m-1699 77 c51 -34 91 -63 89 -64
-1 -2 -32 0 -67 3 l-64 6 -77 79 c-43 44 -78 84 -78 89 0 11 72 -30 197 -113z
m-523 16 c7 -27 11 -51 7 -55 -9 -10 -61 3 -61 16 0 25 22 86 30 86 5 0 16
-21 24 -47z m1993 -3505 c-2 -24 -4 -5 -4 42 0 47 2 66 4 43 2 -24 2 -62 0
-85z m3 -176 c-7 -3 -7 -9 2 -20 11 -13 11 -14 -1 -7 -11 6 -13 4 -6 -11 4
-10 9 -50 10 -89 l2 -70 -6 65 c-5 50 -8 58 -12 35 -4 -19 -7 -3 -8 41 0 39 2
74 6 78 4 4 7 24 6 44 -2 31 0 29 8 -13 7 -35 7 -51 -1 -53z m7 -234 c-3 -8
-6 -5 -6 6 -1 11 2 17 5 13 3 -3 4 -12 1 -19z"/>
<path d="M6960 9360 c-47 -10 -112 -25 -145 -33 l-60 -15 85 -1 c47 0 141 6
209 14 68 8 128 12 132 9 5 -3 9 -2 9 1 0 10 -62 32 -105 38 -23 4 -76 -2
-125 -13z"/>
<path d="M2565 8419 c-498 -400 -937 -934 -1204 -1465 -165 -328 -312 -780
-371 -1144 -11 -69 -20 -132 -20 -140 0 -13 51 -15 400 -15 l401 0 5 25 c85
374 230 733 435 1075 142 237 299 444 500 659 87 93 301 288 402 366 31 25 55
50 53 55 -8 21 -365 506 -444 605 -25 30 -48 56 -51 57 -3 2 -51 -34 -106 -78z"/>
<path d="M5465 7173 c-435 -15 -704 -41 -798 -75 -72 -26 -188 -129 -462 -409
-211 -216 -792 -839 -784 -839 2 0 146 -3 319 -6 726 -11 1822 -35 2050 -44
135 -5 376 -12 535 -15 160 -3 349 -10 420 -15 72 -5 290 -16 485 -24 195 -9
463 -20 595 -26 216 -10 465 -37 481 -52 3 -4 -25 -39 -61 -79 -217 -236 -572
-741 -680 -966 l-20 -41 -470 1 -470 2 -73 -24 c-96 -31 -144 -77 -224 -210
l-63 -104 -100 2 c-422 8 -1419 41 -2415 80 -272 11 -591 23 -708 27 -175 6
-212 10 -208 21 31 80 48 158 40 186 -22 78 -214 115 -606 118 -98 0 -178 3
-178 5 0 11 82 120 177 235 168 205 428 446 636 588 42 30 77 56 77 58 0 3
-13 -3 -28 -14 -230 -152 -397 -288 -550 -447 -106 -110 -292 -337 -318 -388
-14 -26 -19 -28 -77 -28 -215 0 -324 -38 -438 -150 -76 -74 -115 -147 -164
-300 -60 -192 -72 -326 -33 -375 62 -79 406 -161 928 -219 336 -38 802 -61
2200 -111 234 -8 542 -19 685 -25 750 -29 900 -32 1165 -26 674 15 1255 82
1590 182 179 54 642 234 648 253 4 13 -85 -18 -309 -107 -245 -97 -463 -161
-671 -196 l-37 -7 63 63 c131 132 206 333 206 552 0 138 -67 250 -189 315 -34
18 -61 36 -61 41 0 21 159 285 271 450 137 203 332 458 419 547 46 47 60 69
60 91 0 65 -119 791 -166 1016 -47 219 -76 265 -196 305 -357 119 -1647 214
-2493 184z m1877 -823 c92 -31 442 -243 501 -304 76 -80 199 -278 178 -290 -4
-3 -24 -3 -44 1 -28 4 -46 18 -88 69 -29 35 -57 60 -62 57 -6 -3 -7 -2 -4 4 8
12 -58 92 -114 139 -129 107 -349 159 -521 123 -105 -23 -265 -123 -412 -260
-43 -41 -86 -77 -95 -81 -24 -10 -81 -9 -81 1 0 16 225 244 289 293 129 97
246 138 398 138 51 0 93 4 93 9 0 20 -89 51 -161 57 -80 7 -164 -6 -235 -36
-50 -22 -161 -95 -223 -148 -70 -59 -33 -4 52 79 90 86 161 136 229 161 68 24
207 18 300 -12z m-4762 -1715 c165 -18 203 -28 230 -62 26 -33 25 -68 -4 -145
-39 -105 -246 -505 -322 -624 -39 -60 -87 -103 -117 -105 -78 -5 -572 64 -767
107 -204 45 -232 67 -231 181 1 148 83 371 179 491 82 103 150 148 255 168 92
18 580 11 777 -11z m4962 -99 c112 -25 193 -97 235 -208 23 -62 20 -212 -6
-313 -27 -105 -90 -230 -145 -292 -85 -94 -185 -122 -523 -142 -101 -6 -265
-16 -365 -22 -99 -6 -266 -12 -369 -13 -175 -1 -189 0 -215 20 -15 11 -32 34
-36 50 -11 36 6 158 38 281 25 98 99 302 114 317 6 6 24 11 41 12 37 3 39 23
-29 -206 -27 -91 -60 -208 -72 -262 -19 -84 -20 -100 -8 -125 l13 -28 125 -3
c164 -5 881 29 1017 48 142 19 251 104 321 251 47 98 72 201 72 295 0 95 -17
141 -70 195 -83 83 -208 113 -534 129 -392 19 -583 11 -651 -29 -38 -22 -72
-74 -111 -170 -24 -61 -35 -77 -53 -79 -13 -2 -28 1 -33 6 -14 14 55 142 110
203 95 105 122 110 647 104 324 -3 435 -7 487 -19z m-709 -166 c125 -63 171
-192 109 -305 -15 -29 -43 -60 -65 -75 l-39 -24 22 -18 c12 -10 37 -20 56 -24
33 -6 34 -7 34 -58 0 -28 -5 -86 -12 -128 -13 -86 -22 -95 -82 -84 -24 5 -50
25 -99 81 -36 41 -97 103 -136 137 -120 107 -191 219 -191 302 1 50 33 108 90
159 63 57 93 67 190 64 56 -2 87 -8 123 -27z m715 -6 c94 -47 146 -134 145
-245 0 -87 -34 -161 -107 -235 -115 -114 -199 -111 -319 14 -72 76 -99 131
-105 213 -6 83 8 125 61 185 83 94 216 122 325 68z m-4073 -49 c604 -25 1528
-59 1885 -70 627 -19 856 -27 867 -30 8 -3 3 -25 -16 -72 -82 -202 -141 -413
-141 -503 0 -44 6 -65 25 -94 l24 -36 -107 0 c-217 0 -2768 95 -3232 120 -215
12 -293 19 -310 30 -9 5 36 101 160 344 171 335 172 336 203 336 18 0 307 -11
642 -25z"/>
<path d="M1830 4609 c-81 -14 -167 -65 -222 -134 -94 -116 -175 -325 -185
-475 -5 -77 -3 -87 15 -103 25 -23 134 -42 318 -56 78 -6 163 -18 190 -26 60
-18 217 -41 341 -50 84 -6 93 -5 112 14 12 12 21 27 21 34 0 24 -45 76 -131
151 -102 88 -133 141 -134 226 0 135 153 280 297 280 95 0 218 -55 218 -97 0
-9 -31 -78 -69 -152 -93 -183 -104 -211 -86 -211 8 0 30 21 49 48 40 53 202
391 212 437 14 73 -48 94 -336 114 -179 13 -532 12 -610 0z m106 -144 c91 -27
173 -121 174 -198 0 -62 -63 -147 -137 -183 -62 -31 -58 -38 26 -49 l54 -7 -6
-72 c-3 -39 -11 -86 -17 -103 -10 -29 -15 -32 -38 -27 -52 12 -188 100 -253
164 -76 76 -110 141 -117 226 -8 108 41 198 131 240 60 27 112 30 183 9z"/>
<path d="M4350 4110 c-14 -4 -44 -8 -67 -9 -40 -1 -63 -14 -45 -25 5 -3 67 -8
139 -12 97 -5 132 -4 138 5 10 17 6 19 -45 23 -25 1 -51 9 -58 16 -15 13 -25
14 -62 2z"/>
<path d="M4211 3994 c-13 -32 -27 -69 -32 -82 -5 -13 -9 -24 -9 -26 0 -1 24
-3 53 -5 48 -1 53 1 69 29 l17 30 -42 -6 c-23 -4 -51 -14 -61 -23 -16 -13 -18
-13 -13 -1 3 8 11 34 17 57 7 23 20 49 31 59 16 14 23 15 49 4 16 -7 42 -10
56 -7 14 2 45 -1 69 -9 37 -11 45 -11 56 2 6 8 10 16 7 19 -2 2 -58 7 -124 11
l-121 7 -22 -59z m39 -84 c0 -5 -2 -10 -4 -10 -3 0 -8 5 -11 10 -3 6 -1 10 4
10 6 0 11 -4 11 -10z"/>
<path d="M4236 3981 c-15 -23 75 -29 94 -6 11 13 6 15 -38 15 -28 0 -53 -4
-56 -9z"/>
<path d="M4348 3973 c-24 -27 -60 -103 -49 -103 28 0 62 23 76 50 9 18 19 29
23 26 3 -4 -4 -20 -16 -36 -12 -16 -22 -34 -22 -39 0 -5 -12 -12 -27 -14 -26
-4 -26 -4 4 -6 29 -1 35 4 48 35 8 19 24 48 35 64 11 15 20 31 20 34 0 15 -78
5 -92 -11z m10 -55 c-8 -12 -21 -24 -29 -26 -10 -4 -9 1 4 15 9 11 14 23 10
26 -3 4 2 7 12 7 16 0 16 -2 3 -22z"/>
<path d="M4220 3956 c0 -2 7 -7 16 -10 8 -3 12 -2 9 4 -6 10 -25 14 -25 6z"/>
<path d="M4233 3863 c9 -2 25 -2 35 0 9 3 1 5 -18 5 -19 0 -27 -2 -17 -5z"/>
<path d="M8277 6949 c-11 -6 -25 -26 -32 -43 -12 -29 -11 -42 5 -107 46 -174
132 -569 165 -754 19 -110 47 -251 62 -314 22 -97 32 -119 60 -150 l34 -36
-20 39 -20 40 28 17 c15 9 36 27 47 40 36 44 50 52 76 38 17 -9 14 -4 -9 18
-56 53 -42 136 37 226 39 43 64 61 109 77 l57 21 -23 72 c-54 165 -111 303
-200 479 -72 145 -107 202 -149 247 -79 86 -172 122 -227 90z m151 -576 c88
-352 162 -665 162 -683 0 -9 -12 -23 -26 -30 -22 -12 -27 -12 -34 0 -14 22
-12 41 6 54 14 11 6 49 -72 356 -121 481 -127 507 -119 527 6 17 7 17 19 1 6
-9 35 -110 64 -225z"/>
<path d="M4125 6718 l-90 -93 93 90 c85 83 97 95 89 95 -1 0 -43 -42 -92 -92z"/>
<path d="M4009 6603 c-13 -16 -12 -17 4 -4 16 13 21 21 13 21 -2 0 -10 -8 -17
-17z"/>
<path d="M3940 6535 c-11 -12 -20 -25 -20 -29 0 -5 9 3 21 18 11 14 24 24 29
21 5 -3 11 -2 14 3 11 18 -25 8 -44 -13z"/>
<path d="M3890 6480 c-9 -6 -10 -10 -3 -10 6 0 15 5 18 10 8 12 4 12 -15 0z"/>
<path d="M3800 6385 c-41 -41 -72 -77 -69 -79 3 -3 38 28 79 69 41 41 72 77
69 79 -3 3 -38 -28 -79 -69z"/>
<path d="M3635 6209 c-39 -39 -63 -68 -54 -63 16 9 135 134 127 134 -2 0 -35
-32 -73 -71z"/>
<path d="M3045 6149 c-19 -17 -35 -38 -34 -48 0 -12 3 -10 9 5 4 12 23 33 42
48 18 14 30 26 26 26 -4 0 -23 -14 -43 -31z"/>
<path d="M3130 5750 c-19 -11 -30 -19 -25 -19 6 0 26 8 45 19 19 11 31 19 25
19 -5 0 -26 -8 -45 -19z"/>
<path d="M4300 5711 l-45 -6 40 -16 c155 -64 249 -76 700 -89 198 -6 375 -13
393 -16 31 -5 32 -4 32 29 0 31 3 35 30 39 29 4 40 -5 20 -17 -5 -3 -10 -17
-10 -29 0 -22 5 -24 73 -30 90 -7 701 -22 782 -18 36 1 106 17 175 40 128 41
125 40 119 47 -10 9 -462 36 -794 46 -187 6 -419 14 -515 19 -198 9 -931 10
-1000 1z"/>
<path d="M6773 5703 c48 -2 125 -2 170 0 45 1 6 3 -88 3 -93 0 -130 -2 -82 -3z"/>
<path d="M7178 5693 c68 -2 176 -2 240 0 64 1 9 3 -123 3 -132 0 -185 -2 -117
-3z"/>
<path d="M2920 5650 c-8 -5 -10 -10 -5 -10 6 0 17 5 25 10 8 5 11 10 5 10 -5
0 -17 -5 -25 -10z"/>
<path d="M9242 5515 c0 -16 2 -22 5 -12 2 9 2 23 0 30 -3 6 -5 -1 -5 -18z"/>
<path d="M3608 5384 c-38 -20 -36 -28 2 -9 17 9 30 18 30 20 0 7 -1 6 -32 -11z"/>
<path d="M3472 5295 c-32 -24 -65 -52 -73 -62 -8 -10 11 3 41 27 31 25 67 53
80 62 14 9 22 17 18 17 -3 1 -33 -19 -66 -44z"/>
<path d="M6039 5313 c-13 -16 -12 -17 4 -4 16 13 21 21 13 21 -2 0 -10 -8 -17
-17z"/>
<path d="M5949 5230 c-18 -23 -34 -48 -36 -58 -1 -9 -14 -64 -28 -122 -36
-152 -41 -193 -21 -209 13 -11 74 -13 316 -9 l300 5 52 35 c116 77 334 255
324 265 -1 2 -211 12 -466 23 -254 10 -464 20 -466 22 -2 2 15 23 36 46 22 23
36 42 30 42 -5 0 -24 -18 -41 -40z"/>
<path d="M7059 5223 c-13 -16 -12 -17 4 -4 9 7 17 15 17 17 0 8 -8 3 -21 -13z"/>
<path d="M1051 5213 l-144 -4 6 -252 c3 -139 13 -313 21 -387 30 -249 59 -388
163 -782 9 -32 19 -58 23 -58 5 0 11 19 15 43 10 62 63 282 84 352 95 306 252
610 411 795 l47 55 6 117 c5 113 5 116 -16 122 -21 6 -320 5 -616 -1z"/>
<path d="M3686 5208 c-160 -5 -291 -10 -292 -11 -6 -6 -48 -277 -44 -281 3 -2
147 -8 320 -12 l315 -7 28 24 c45 40 246 283 241 291 -6 9 -168 8 -568 -4z"/>
<path d="M8642 5033 c-9 -3 27 -47 100 -122 63 -64 124 -129 135 -146 l21 -30
-8 47 c-10 53 -40 116 -78 166 -39 52 -134 99 -170 85z"/>
<path d="M9283 4905 c0 -38 2 -53 4 -32 2 20 2 52 0 70 -2 17 -4 1 -4 -38z"/>
<path d="M8963 4903 c9 -2 25 -2 35 0 9 3 1 5 -18 5 -19 0 -27 -2 -17 -5z"/>
<path d="M8911 4869 c1 -19 5 -47 10 -64 5 -20 6 -9 2 30 -6 66 -14 88 -12 34z"/>
<path d="M9287 4758 c6 -96 11 -101 12 -15 0 42 -3 77 -7 77 -5 0 -7 -28 -5
-62z"/>
<path d="M8824 4709 c-3 -6 7 -25 24 -42 60 -64 86 -144 122 -376 22 -141 25
-151 42 -151 7 0 8 15 4 43 -3 23 -13 107 -21 187 -20 179 -35 250 -66 294
-33 48 -88 72 -105 45z"/>
<path d="M9283 4625 c0 -22 2 -30 4 -17 2 12 2 30 0 40 -3 9 -5 -1 -4 -23z"/>
<path d="M9272 4540 c0 -14 2 -19 5 -12 2 6 2 18 0 25 -3 6 -5 1 -5 -13z"/>
<path d="M8720 4394 c0 -10 5 -26 10 -34 8 -11 9 -7 4 15 -8 37 -14 45 -14 19z"/>
<path d="M8753 4322 c-7 -4 -19 -48 -28 -97 -8 -50 -18 -98 -21 -107 -3 -10
-2 -18 2 -18 4 0 13 8 21 18 11 15 13 4 10 -78 -2 -52 -12 -170 -22 -263 -10
-92 -15 -170 -12 -174 4 -3 19 -1 33 6 15 6 29 9 32 7 3 -3 1 -56 -4 -117 -5
-61 -6 -115 -3 -121 13 -21 19 175 11 357 -5 105 -7 273 -4 375 5 201 3 223
-15 212z"/>
<path d="M9132 4300 c0 -14 2 -19 5 -12 2 6 2 18 0 25 -3 6 -5 1 -5 -13z"/>
<path d="M9017 4003 c-79 -118 -107 -186 -113 -273 -2 -36 -7 -85 -9 -110 -5
-42 -1 -38 70 89 114 201 133 246 136 320 2 40 -2 66 -8 68 -6 2 -41 -40 -76
-94z"/>
<path d="M8803 4035 c0 -22 2 -30 4 -17 2 12 2 30 0 40 -3 9 -5 -1 -4 -23z"/>
<path d="M8673 3800 c0 -30 2 -43 4 -27 2 15 2 39 0 55 -2 15 -4 2 -4 -28z"/>
<path d="M8664 3635 c0 -55 1 -76 3 -47 2 29 2 74 0 100 -2 26 -3 2 -3 -53z"/>
<path d="M9135 3650 c-9 -16 -13 -30 -11 -30 3 0 12 14 21 30 9 17 13 30 11
30 -3 0 -12 -13 -21 -30z"/>
<path d="M1280 3543 l0 -78 97 -54 c53 -30 110 -57 127 -61 17 -4 39 -11 49
-15 14 -6 18 -1 24 26 5 28 7 30 14 14 5 -13 7 2 6 39 l-2 59 -100 42 c-55 23
-126 56 -157 74 l-58 33 0 -79z"/>
<path d="M1430 3565 c14 -8 30 -14 35 -14 6 0 -1 6 -15 14 -14 8 -29 14 -35
14 -5 0 1 -6 15 -14z"/>
<path d="M8670 3510 c0 -22 24 -27 36 -8 5 7 2 9 -9 5 -11 -4 -14 -2 -10 9 3
7 0 14 -6 14 -6 0 -11 -9 -11 -20z"/>
<path d="M1762 3484 c-45 -31 -21 -186 42 -268 38 -50 155 -86 474 -145 193
-36 195 -37 188 -13 -3 9 -12 61 -20 115 -16 105 -43 167 -87 199 -16 13 -94
33 -215 58 -104 21 -218 45 -254 54 -82 20 -100 20 -128 0z m595 -300 c-3 -3
-12 -4 -19 -1 -8 3 -5 6 6 6 11 1 17 -2 13 -5z"/>
<path d="M8714 3489 c-3 -6 -18 -9 -32 -7 -38 4 -43 -34 -7 -50 47 -22 57 -17
69 29 6 28 -17 49 -30 28z"/>
<path d="M7930 3382 c0 -4 -15 -9 -32 -10 -43 -3 -471 -84 -520 -98 -15 -4
-18 -17 -18 -72 0 -37 3 -77 6 -90 6 -21 11 -23 48 -17 61 10 539 116 548 121
9 6 11 135 2 158 -6 16 -34 23 -34 8z"/>
<path d="M8813 3280 c0 -41 2 -58 4 -37 2 20 2 54 0 75 -2 20 -4 3 -4 -38z"/>
<path d="M7428 3313 c7 -3 16 -2 19 1 4 3 -2 6 -13 5 -11 0 -14 -3 -6 -6z"/>
<path d="M6845 3290 c-72 -7 -180 -16 -660 -50 -154 -11 -173 -18 -210 -80
-14 -24 -20 -58 -23 -121 -4 -88 -4 -88 28 -120 l32 -32 161 6 c385 16 915 67
954 92 29 19 38 53 38 135 0 150 -84 195 -320 170z m-70 -57 c-26 -106 -47
-117 -198 -108 -103 7 -108 8 -121 34 -8 14 -16 37 -17 51 l-4 25 115 7 c63 4
131 9 150 11 85 9 83 9 75 -20z"/>
<path d="M8771 3240 c18 -32 35 -58 37 -56 5 6 -52 115 -61 115 -5 1 6 -26 24
-59z"/>
<path d="M8603 3243 c-9 -3 -13 -33 -13 -101 0 -85 10 -136 23 -122 7 8 14
230 8 229 -3 0 -12 -3 -18 -6z"/>
<path d="M1346 3173 c8 -58 41 -156 96 -285 41 -97 58 -125 99 -163 54 -50
254 -154 304 -158 30 -2 30 -1 30 48 -1 30 -18 103 -44 185 -68 213 -73 223
-139 258 -56 29 -335 152 -345 152 -3 0 -3 -17 -1 -37z"/>
<path d="M1879 3044 c-30 -36 -3 -146 133 -549 66 -196 95 -258 152 -327 91
-111 202 -143 631 -182 479 -44 1534 -101 2829 -153 342 -13 445 -14 551 -5
256 23 648 100 781 153 110 43 161 134 230 408 56 220 65 309 36 374 -21 47
-21 47 -69 46 -26 -1 -59 -4 -72 -8 -22 -6 -22 -8 -7 -20 15 -12 15 -16 1 -37
-11 -17 -11 -24 -2 -27 9 -3 9 -11 1 -33 -8 -23 -8 -33 3 -43 12 -11 12 -16
-2 -31 -14 -15 -14 -20 -2 -32 8 -8 11 -21 7 -33 -4 -11 -5 -25 -3 -32 2 -6
-5 -14 -16 -18 -21 -6 -27 -25 -14 -39 4 -3 13 4 20 16 12 22 12 23 13 2 0
-12 -11 -38 -25 -58 -23 -35 -26 -64 -4 -51 18 12 9 -19 -13 -42 -17 -18 -19
-26 -10 -35 7 -7 12 -17 12 -22 0 -6 -6 -3 -13 6 -9 11 -18 14 -27 8 -12 -7
-12 -12 0 -35 12 -23 12 -28 -8 -48 -20 -19 -25 -20 -43 -8 -19 11 -24 10 -46
-13 l-24 -26 -32 29 c-32 30 -57 28 -57 -5 0 -17 5 -17 31 -4 12 7 19 7 19 1
0 -17 -36 -22 -64 -10 -14 7 -23 16 -20 20 8 13 -10 11 -25 -3 -11 -11 -13
-10 -7 0 4 7 1 15 -9 18 -9 4 -14 12 -11 20 6 16 -19 38 -34 29 -8 -5 -5 -12
7 -22 17 -13 17 -14 1 -9 -13 4 -18 0 -18 -12 0 -21 -96 -96 -110 -87 -6 3
-10 2 -10 -2 0 -5 -37 -24 -82 -43 -46 -18 -136 -59 -200 -91 l-117 -58 -10
32 c-39 126 -46 221 -32 461 13 209 18 246 33 224 7 -9 8 -4 3 16 -10 45 16
66 84 67 53 2 54 2 16 8 l-40 7 52 12 c28 6 134 25 235 42 527 88 612 104 493
94 -33 -2 -168 -15 -300 -29 -132 -13 -362 -36 -512 -50 -149 -14 -286 -30
-303 -36 -17 -6 -39 -9 -50 -6 -25 6 -25 -1 -2 -26 19 -23 1 -16 -31 11 -13
12 -20 13 -29 4 -9 -9 -16 -8 -30 5 -17 15 -20 14 -44 -10 -25 -25 -44 -28
-44 -7 0 5 7 7 15 4 9 -4 15 0 15 10 0 19 -21 21 -39 4 -11 -10 -13 -10 -7 0
5 8 0 12 -13 12 -30 0 -26 -11 23 -60 26 -26 28 -25 49 10 21 34 37 39 37 11
0 -11 9 -21 22 -25 19 -4 20 -8 10 -18 -11 -11 -16 -9 -28 7 -11 15 -18 17
-31 9 -29 -18 -29 -38 -1 -31 39 10 41 -4 6 -37 l-33 -31 28 -3 c27 -3 37 -25
16 -38 -7 -4 -20 4 -30 17 -14 19 -20 21 -30 12 -10 -10 -16 -9 -31 4 -10 9
-18 22 -18 30 0 7 -7 13 -15 13 -8 0 -15 4 -15 8 0 13 23 32 39 32 12 0 12 -3
3 -12 -7 -7 -12 -16 -12 -20 0 -15 25 -8 35 10 8 13 4 23 -17 46 -16 16 -28
23 -28 17 0 -7 -4 -10 -9 -7 -4 3 -6 16 -4 30 6 28 -12 43 -32 26 -10 -8 -19
-8 -34 0 -31 16 -26 -5 7 -28 20 -16 24 -23 15 -32 -13 -14 -33 -5 -33 14 0 8
-8 13 -17 12 -10 0 -19 7 -21 19 -3 17 -1 18 8 5 9 -12 11 -12 8 -1 -7 24 -24
23 -56 -4 -33 -27 -47 -31 -58 -14 -4 8 1 9 17 4 24 -7 24 -7 4 10 -20 16 -19
16 8 10 18 -4 27 -1 27 8 0 18 -45 20 -60 2 -11 -14 -15 -14 -30 0 -13 12 -20
13 -25 5 -4 -6 1 -17 11 -25 11 -7 15 -17 11 -22 -8 -7 -26 10 -47 47 -8 13
-12 13 -30 2 -12 -8 -19 -9 -15 -3 3 6 3 11 -2 12 -4 0 -16 2 -25 4 -26 5 -22
-7 13 -38 33 -29 32 -55 -2 -36 -12 6 -23 9 -25 6 -10 -10 10 -39 32 -48 14
-5 24 -17 24 -29 0 -21 8 -24 34 -14 8 3 12 12 9 20 -3 8 5 18 20 25 14 6 23
17 21 24 -8 20 11 26 31 11 23 -17 11 -36 -23 -36 -19 0 -23 -3 -15 -11 17
-17 4 -39 -23 -39 -22 0 -23 -2 -13 -21 7 -13 17 -19 29 -16 15 4 17 0 14 -19
-3 -19 0 -24 15 -24 32 0 33 17 5 43 -26 25 -26 47 2 47 8 0 14 -9 14 -19 0
-10 7 -21 15 -25 20 -7 19 -26 -2 -42 -17 -12 -17 -14 5 -36 12 -14 20 -28 17
-31 -3 -4 3 -1 12 8 16 13 15 16 -1 34 -20 22 -14 43 9 35 8 -4 13 -10 10 -14
-3 -4 4 -10 15 -13 25 -7 26 5 0 28 -20 18 -18 35 3 35 7 0 6 -4 -3 -10 -13
-9 -13 -10 0 -11 8 -1 20 -1 27 0 24 3 23 -20 -3 -54 -15 -20 -29 -33 -32 -30
-3 3 -11 -4 -19 -15 -8 -11 -24 -25 -36 -30 -19 -10 -20 -9 -6 2 15 12 15 16
-6 42 -20 25 -25 26 -43 15 -16 -10 -18 -17 -11 -31 8 -14 14 -16 29 -8 27 15
38 12 17 -4 -15 -12 -16 -18 -7 -35 18 -34 60 -20 60 21 0 10 4 18 9 18 12 0
41 -29 41 -41 0 -6 8 -5 20 1 11 6 18 15 15 21 -11 17 6 31 21 18 13 -11 11
-16 -13 -35 -20 -16 -25 -26 -17 -34 17 -17 46 -1 39 21 -9 28 4 23 40 -14 51
-52 64 -87 33 -87 -5 0 -6 9 -3 20 5 16 2 20 -14 20 -19 0 -26 10 -22 33 2 11
-24 8 -36 -4 -9 -9 -1 -22 30 -53 23 -24 51 -46 61 -50 19 -6 18 -7 -3 -23
-17 -11 -20 -18 -10 -23 14 -9 41 -2 34 10 -3 4 1 13 9 19 10 9 17 7 27 -6 9
-11 10 -14 2 -9 -8 4 -13 1 -13 -8 0 -10 6 -13 15 -10 23 9 48 -15 34 -32 -9
-11 -16 -9 -36 11 -25 22 -60 24 -46 2 4 -6 1 -7 -8 -2 -32 19 -39 28 -30 39
11 13 -1 39 -15 35 -5 -1 -14 8 -20 19 -9 19 -13 20 -29 8 -19 -14 -13 -36 11
-36 8 0 14 -7 14 -15 0 -8 -6 -15 -12 -15 -7 0 -19 -4 -27 -9 -13 -8 -13 -12
0 -27 13 -15 12 -16 -11 -9 -14 4 -32 14 -41 21 -16 15 -39 19 -39 7 0 -3 7
-15 17 -25 9 -10 13 -21 9 -25 -3 -4 -28 16 -55 43 -40 40 -46 52 -37 66 16
27 -8 48 -30 26 -15 -15 -15 -19 6 -48 l22 -31 -22 -24 c-21 -23 -20 -52 2
-39 7 4 8 2 4 -5 -9 -13 -66 23 -66 42 0 21 -51 65 -71 60 -15 -4 -17 -9 -8
-25 8 -14 14 -16 23 -9 21 17 38 -8 19 -27 -14 -15 -17 -14 -35 8 -11 14 -28
24 -37 22 -9 -2 -12 0 -6 5 18 14 16 39 -6 61 -11 12 -24 20 -30 17 -14 -9
-11 -35 5 -41 8 -3 12 -12 9 -20 -4 -10 -9 -9 -23 8 -15 19 -20 20 -34 9 -9
-7 -16 -21 -16 -30 0 -14 -2 -14 -10 -1 -6 10 -4 20 6 31 7 8 14 21 14 27 0
22 -22 24 -42 2 -19 -20 -19 -22 -2 -41 17 -19 17 -20 -5 -35 -17 -13 -20 -19
-10 -30 14 -17 -2 -19 -19 -2 -8 8 -16 5 -31 -13 -19 -24 -20 -24 -49 -6 -29
16 -31 16 -35 0 -3 -11 -5 -8 -6 10 0 15 -5 27 -9 27 -9 0 -35 47 -36 65 -1
16 -49 35 -76 29 -25 -4 -25 -4 -2 7 12 7 22 15 22 18 0 12 -51 61 -59 57 -5
-3 -6 6 -3 19 3 20 0 25 -17 25 -25 0 -28 -24 -6 -46 22 -23 18 -34 -12 -34
-20 0 -24 3 -14 9 18 12 6 42 -14 35 -22 -9 -18 -25 15 -61 17 -18 30 -40 30
-49 0 -14 3 -15 12 -6 15 15 58 16 58 1 0 -6 9 -9 20 -6 11 3 23 1 26 -4 3 -5
-2 -9 -11 -9 -13 0 -14 -4 -4 -22 9 -18 9 -20 -4 -15 -8 3 -23 -1 -34 -8 -17
-14 -17 -14 6 -15 18 0 22 -3 14 -11 -12 -12 -57 12 -67 36 -3 9 -13 12 -23 9
-14 -5 -15 -4 -4 4 11 8 10 15 -5 41 -20 34 -47 37 -52 8 -3 -16 -1 -17 17 -7
12 6 21 7 21 1 0 -14 -31 -22 -45 -11 -9 7 -16 6 -25 -5 -7 -8 -17 -15 -23
-15 -5 0 -2 9 8 20 24 26 13 55 -15 40 -35 -19 -35 -39 1 -77 19 -20 28 -33
21 -29 -8 5 -21 1 -32 -9 -21 -19 -49 -9 -75 28 -16 22 -16 22 -30 3 -8 -11
-15 -25 -15 -32 0 -18 30 -26 36 -9 4 8 11 15 17 15 5 0 2 -9 -8 -20 -17 -19
-19 -19 -48 -2 -22 13 -31 14 -34 5 -8 -21 -33 -15 -83 21 -31 23 -52 31 -61
25 -18 -11 -48 17 -42 39 2 10 -5 26 -17 37 -18 17 -22 17 -36 3 -14 -13 -13
-18 11 -46 35 -42 18 -41 -19 0 -25 29 -29 30 -37 15 -11 -18 -29 -23 -29 -8
0 15 -46 61 -53 54 -13 -12 -7 -21 36 -63 24 -24 33 -37 20 -31 -30 15 -43 14
-43 -4 0 -35 -31 -26 -74 20 -31 34 -46 44 -51 35 -5 -8 -1 -18 8 -25 9 -7 13
-16 9 -20 -4 -5 1 -5 10 -2 21 7 30 -4 18 -23 -7 -12 -12 -11 -29 4 -19 17
-21 17 -21 3 0 -10 -4 -17 -10 -17 -5 0 -10 5 -10 12 0 6 -7 20 -17 30 -12 13
-13 18 -3 18 7 0 -4 17 -26 39 -73 72 -96 102 -90 116 3 8 11 15 17 15 7 0 5
8 -6 20 -10 11 -22 20 -28 20 -5 0 -7 -9 -4 -20 6 -23 -5 -26 -22 -7 -8 10 -7
17 1 25 9 9 9 16 -4 28 -13 13 -19 14 -36 3 -20 -13 -19 -15 29 -62 27 -28 49
-55 49 -62 0 -6 14 -25 31 -43 17 -17 28 -35 25 -40 -2 -4 -1 -14 5 -22 7 -13
9 -12 9 3 0 20 16 23 26 5 4 -7 4 -10 -1 -6 -4 4 -14 0 -21 -10 -14 -20 -22
-15 -27 16 -6 42 -47 56 -47 17 0 -8 -6 -12 -13 -9 -8 3 -20 -2 -27 -11 -12
-14 -15 -14 -32 2 -19 17 -20 17 -29 0 -7 -12 -13 -14 -22 -7 -7 6 -30 26 -52
45 -23 20 -47 33 -56 30 -11 -4 -15 1 -15 17 1 14 -6 24 -16 26 -11 2 -18 -3
-18 -13 0 -8 -11 -20 -25 -25 -17 -7 -23 -15 -19 -27 3 -10 -11 0 -30 21 -20
22 -36 44 -36 50 0 6 -9 17 -20 24 -11 7 -20 23 -20 36 0 27 -34 63 -45 47 -3
-6 -13 -11 -22 -11 -14 0 -14 2 1 19 17 18 17 21 1 45 -19 29 -27 31 -55 14
-10 -7 -22 -9 -26 -5 -11 11 16 36 32 30 18 -7 18 14 -1 33 -8 8 -19 22 -23
31 -6 9 -15 13 -21 8 -9 -5 -7 -13 9 -30 l22 -23 -21 -12 c-26 -13 -47 -4 -32
14 17 20 -8 39 -26 20 -13 -13 -5 -25 72 -100 64 -63 90 -82 99 -75 13 11 26
5 26 -10 0 -5 -7 -6 -16 -2 -12 4 -15 2 -12 -8 3 -8 12 -13 21 -13 20 2 12
-18 -13 -34 -17 -11 -20 -10 -20 8 0 11 -7 20 -15 20 -8 0 -15 6 -15 14 0 7
-7 19 -15 26 -28 23 -28 -16 0 -46 15 -16 31 -36 36 -46 15 -28 -19 -15 -46
18 -14 16 -34 39 -46 50 -23 24 -18 54 6 34 15 -12 35 -6 35 10 0 5 -11 12
-25 16 -19 5 -24 11 -20 25 5 13 1 17 -15 16 -25 -2 -26 -22 -2 -36 15 -9 14
-13 -13 -35 -33 -28 -48 -28 -53 -1 -3 15 1 17 23 11 23 -6 26 -4 21 9 -3 9
-6 19 -6 21 0 2 -5 4 -11 4 -6 0 -40 30 -75 66 -48 51 -65 63 -70 51 -8 -22 3
-37 23 -30 13 5 15 2 10 -11 -4 -10 -7 -20 -7 -23 0 -3 -6 0 -14 6 -11 9 -14
8 -12 -5 0 -9 -5 -19 -12 -21 -9 -4 -10 1 -3 20 7 18 5 28 -7 41 -16 16 -16
18 1 30 19 14 23 36 7 36 -5 0 -10 6 -10 14 0 7 -7 19 -15 26 -17 14 -20 30
-4 30 19 0 78 51 73 64 -3 7 2 19 11 26 13 10 18 11 28 1 9 -10 6 -17 -15 -34
-39 -31 -28 -82 12 -57 12 7 12 12 2 22 -17 17 -15 28 6 28 30 1 62 35 55 60
-4 16 -3 21 5 16 7 -4 12 -16 12 -27 0 -14 7 -19 25 -19 18 0 23 4 19 15 -4 8
-12 15 -19 15 -8 0 -15 8 -17 17 -2 12 -14 18 -36 19 -35 2 -40 -7 -17 -26 8
-7 15 -19 15 -26 0 -25 -20 -15 -42 21 -24 41 -43 41 -43 -1 0 -19 -5 -29 -15
-30 -29 -2 -31 -4 -20 -23 14 -27 -6 -39 -28 -17 -15 15 -14 18 17 43 34 29
36 63 2 63 -14 -1 -14 -2 2 -14 11 -9 14 -17 8 -20 -6 -4 -20 3 -31 14 -30 30
-39 16 -11 -14 l23 -25 -36 -15 c-20 -8 -36 -20 -36 -25 0 -6 6 -8 13 -5 18 6
42 -22 27 -31 -5 -3 -14 -3 -20 0 -5 3 -10 -1 -10 -9 0 -8 9 -20 20 -26 15 -8
19 -17 15 -31 -5 -14 -2 -19 10 -19 13 0 15 -5 10 -17 -7 -15 -8 -65 -3 -133
0 -8 -3 -23 -7 -33 -5 -13 -4 -16 8 -11 9 3 13 12 10 20 -6 16 13 19 22 4 4
-6 -4 -20 -17 -31 -15 -13 -18 -19 -8 -18 28 3 40 -1 40 -12 0 -6 -6 -9 -14
-6 -8 3 -16 -2 -19 -13 -4 -16 -1 -17 27 -9 17 5 31 9 32 9 0 0 11 -9 24 -20
13 -11 32 -20 42 -20 11 0 16 -5 13 -10 -9 -15 15 -42 32 -36 25 10 -28 -54
-71 -86 -49 -36 -165 -91 -256 -121 -99 -33 -216 -30 -295 6 -156 73 -211 207
-203 497 2 88 8 143 17 159 12 22 17 16 98 -140 85 -165 222 -422 228 -427 1
-1 12 -4 24 -7 11 -2 25 -6 30 -9 5 -3 15 2 22 12 11 14 11 15 0 5 -10 -8 -20
-8 -44 2 -31 13 -23 -1 -269 463 -39 73 -68 136 -64 139 3 3 41 6 83 6 60 0
65 1 23 4 -102 8 -81 28 39 38 50 4 110 30 97 42 -3 3 -12 0 -21 -7 -8 -7 -15
-8 -15 -3 0 11 -13 14 -352 89 -135 30 -258 54 -271 54 -14 0 -31 -7 -38 -16z
m3401 -303 c13 -19 19 -31 12 -27 -8 5 -12 0 -12 -13 0 -27 -13 -33 -36 -15
-19 14 -18 15 4 30 28 21 28 34 1 34 -18 0 -19 2 -9 15 7 9 14 14 15 13 1 -2
12 -18 25 -37z m280 9 c0 -5 -7 -10 -16 -10 -8 0 -12 5 -9 10 3 6 10 10 16 10
5 0 9 -4 9 -10z m-110 -36 c0 -16 -16 -19 -25 -4 -3 6 -11 10 -18 10 -6 0 -2
-10 11 -22 21 -22 22 -22 37 -3 12 17 16 18 24 5 5 -8 7 -18 5 -22 -3 -4 4 -8
15 -8 23 0 28 -15 10 -26 -7 -4 -19 3 -29 16 -10 14 -22 20 -29 15 -9 -5 -7
-11 6 -20 10 -7 18 -22 18 -32 0 -11 9 -19 23 -21 13 -2 21 -9 20 -17 -3 -13
0 -15 21 -15 5 0 11 9 14 21 6 24 30 21 35 -4 2 -12 -3 -17 -17 -17 -12 0 -21
-3 -21 -8 0 -4 25 -31 55 -60 35 -34 52 -58 48 -68 -4 -11 -9 -12 -19 -4 -7 7
-10 18 -7 26 3 9 0 14 -8 12 -7 -2 -18 7 -24 20 -5 12 -15 22 -22 22 -7 0 -13
7 -13 15 0 8 -7 15 -16 15 -8 0 -29 15 -47 34 -35 36 -63 50 -72 36 -4 -6 -15
-10 -26 -10 -19 0 -19 1 -3 25 15 24 18 24 34 10 16 -14 18 -14 24 0 3 9 2 14
-3 11 -10 -6 -34 18 -26 26 3 3 -6 13 -19 23 l-24 18 21 18 c23 18 47 10 47
-17z m340 -5 c0 -6 -7 -6 -20 1 -11 6 -20 15 -20 21 0 6 7 6 20 -1 11 -6 20
-15 20 -21z m-226 -8 c7 -10 -22 -37 -30 -28 -9 8 3 37 15 37 5 0 12 -4 15 -9z
m214 -40 c9 -25 8 -28 -8 -24 -24 6 -35 34 -18 45 7 4 14 8 15 8 0 0 6 -13 11
-29z m-368 11 c0 -19 -23 -32 -37 -21 -20 17 -15 29 12 29 14 0 25 -4 25 -8z
m144 -41 c3 -5 0 -14 -8 -20 -10 -8 -16 -8 -25 3 -9 11 -9 15 1 19 20 8 26 8
32 -2z m191 -10 c0 -23 -23 -24 -35 -1 -10 19 -9 21 12 18 13 -2 23 -9 23 -17z
m40 -30 c-3 -11 0 -23 7 -28 18 -11 19 -43 2 -43 -8 0 -14 10 -14 25 0 32 -18
25 -49 -21 -15 -22 -28 -31 -34 -25 -11 11 0 34 14 26 5 -4 8 4 6 17 -1 18 2
22 17 20 13 -3 17 1 13 12 -4 9 1 20 11 25 26 16 34 13 27 -8z m-175 -46 c-10
-12 -15 -13 -21 -3 -11 17 11 42 24 29 7 -7 6 -15 -3 -26z m-2570 12 c0 -8 -3
-17 -7 -20 -9 -9 -34 13 -27 24 8 14 34 11 34 -4z m195 -7 c0 -7 -6 -15 -12
-17 -8 -3 -13 4 -13 17 0 13 5 20 13 18 6 -3 12 -11 12 -18z m2445 -1 c0 -18
-20 -18 -29 0 -9 16 -8 18 9 14 11 -3 20 -9 20 -14z m-2679 -32 c-13 -13 -31
1 -31 25 0 21 1 21 20 3 13 -12 17 -22 11 -28z m2538 -3 c19 -19 21 -28 12
-37 -9 -9 -13 -6 -18 11 -4 16 -11 22 -23 19 -13 -3 -16 0 -13 14 7 25 13 24
42 -7z m111 6 c0 -23 -25 -27 -33 -6 -7 16 1 26 20 26 7 0 13 -9 13 -20z
m-2562 -8 c3 -9 -3 -13 -19 -10 -12 1 -24 9 -27 16 -3 9 3 13 19 10 12 -1 24
-9 27 -16z m2689 1 c9 -25 26 -34 36 -20 6 8 7 7 4 -5 -3 -9 1 -24 8 -35 13
-17 14 -17 29 2 8 11 16 15 16 9 0 -6 -8 -18 -18 -28 -18 -15 -20 -15 -35 2
-10 10 -14 22 -10 26 5 4 4 6 -2 5 -19 -6 -55 22 -55 41 0 25 18 26 27 3z
m-2742 -13 c11 -17 -5 -32 -21 -19 -8 6 -14 15 -14 20 0 12 27 11 35 -1z
m2450 -10 c11 -17 -5 -32 -21 -19 -8 6 -14 15 -14 20 0 12 27 11 35 -1z m195
-5 c0 -25 31 -31 46 -10 11 15 17 16 26 7 10 -10 8 -14 -10 -18 -25 -7 -24 -6
-16 -28 8 -21 31 -20 42 1 9 15 12 14 37 -5 15 -12 31 -19 35 -17 5 3 12 0 16
-7 4 -7 4 -10 -1 -6 -11 10 -67 -21 -62 -35 2 -7 10 -12 18 -12 8 0 21 -9 31
-20 16 -20 16 -20 39 0 22 20 22 20 -1 -12 -30 -42 -47 -42 -41 -1 0 4 -5 5
-13 2 -8 -3 -21 5 -31 18 l-16 23 -23 -29 c-14 -16 -29 -26 -35 -21 -9 5 -9
10 0 21 6 8 10 14 8 15 -2 0 -13 2 -23 4 -10 2 -22 9 -26 16 -10 16 -40 4 -40
-16 0 -9 4 -14 8 -11 4 2 14 1 22 -4 12 -7 12 -12 2 -22 -10 -10 -17 -7 -36
17 -17 21 -21 34 -14 42 6 7 15 10 21 6 6 -4 8 0 4 10 -3 8 0 21 8 27 11 9 16
7 24 -8 6 -11 7 -22 4 -26 -3 -3 0 -6 7 -6 7 0 22 -7 32 -16 14 -14 20 -14 33
-4 21 17 0 43 -29 35 -17 -5 -18 -4 -6 4 13 10 13 12 0 21 -8 5 -21 10 -29 10
-7 0 -11 6 -7 15 3 9 0 15 -9 15 -17 0 -28 17 -20 30 9 15 25 12 25 -5z
m-2676 -17 c12 -17 18 -19 30 -9 11 9 20 10 35 1 26 -13 26 -17 1 -30 -16 -8
-28 -5 -60 15 -22 14 -40 30 -40 35 0 17 18 11 34 -12z m2581 -27 c-14 -14
-17 -14 -25 -1 -13 21 8 44 27 28 12 -10 12 -14 -2 -27z m-2425 -1 c12 -8 11
-11 -8 -16 -18 -5 -20 -9 -11 -20 9 -11 15 -11 25 -3 14 12 34 4 34 -13 0 -6
-9 -8 -20 -5 -24 6 -26 -5 -5 -23 10 -9 15 -9 15 -1 0 6 7 11 15 11 17 0 18
-2 9 -24 -5 -12 -10 -13 -25 -5 -25 13 -80 89 -73 100 7 12 25 11 44 -1z
m2463 -36 c-3 -8 -9 -14 -13 -14 -14 0 -22 20 -16 37 5 12 9 13 21 3 7 -6 11
-18 8 -26z m287 -2 c0 -17 -17 -7 -31 19 -9 18 -9 19 10 7 12 -7 21 -19 21
-26z m-2795 -13 c-3 -4 -16 -2 -30 4 -23 11 -24 13 -8 25 15 11 20 10 30 -4 7
-9 10 -20 8 -25z m2834 14 c-7 -10 -14 -19 -15 -21 -1 -2 -4 4 -8 13 -3 9 -2
13 4 10 6 -3 10 -1 10 4 0 6 5 11 11 11 8 0 7 -6 -2 -17z m-2602 -10 l26 -17
-24 -6 c-24 -6 -39 4 -39 28 0 16 6 15 37 -5z m2574 -36 c3 -5 16 4 27 20 12
15 22 22 22 15 0 -7 5 -10 10 -7 6 3 10 -1 10 -9 0 -9 -8 -16 -19 -16 -10 0
-22 -7 -25 -16 -3 -8 -10 -12 -16 -9 -5 3 -7 0 -4 -8 6 -17 -11 -31 -26 -22
-7 4 -7 12 0 24 6 13 5 24 -5 37 -8 11 -15 14 -15 8 0 -12 -40 -27 -40 -16 0
3 8 13 18 22 16 16 18 16 37 1 11 -9 23 -20 26 -24z m-2611 1 c0 -13 -23 -5
-28 10 -2 7 2 10 12 6 9 -3 16 -11 16 -16z m190 -32 c-8 -8 -15 -6 -25 8 -20
26 -7 41 16 20 14 -13 16 -21 9 -28z m1230 14 c-25 -21 -58 -17 -37 4 15 16
39 25 50 19 4 -3 -2 -13 -13 -23z m-1366 1 c3 -5 0 -11 -8 -14 -15 -6 -26 1
-26 15 0 11 27 10 34 -1z m186 -15 c0 -7 10 -20 23 -29 12 -8 19 -18 14 -23
-4 -4 -21 5 -37 21 -29 28 -30 28 -30 7 0 -12 4 -21 9 -19 13 3 15 -17 2 -21
-5 -2 -15 6 -21 18 -9 18 -8 25 6 41 20 22 34 25 34 5z m-84 -22 c-4 -19 -1
-24 9 -20 9 3 12 0 8 -10 -4 -12 -8 -12 -21 -2 -8 7 -24 13 -35 13 -11 0 -22
7 -25 15 -4 12 -3 13 10 2 13 -10 16 -9 21 8 8 31 38 26 33 -6z m2329 -2 c0
-11 7 -16 18 -14 25 4 18 -31 -7 -36 -12 -3 -16 0 -11 8 5 8 -1 20 -16 31 -20
16 -22 20 -9 28 17 12 25 6 25 -17z m180 1 l18 -28 -23 20 -23 20 12 -22 c6
-12 16 -25 21 -28 15 -9 12 -25 -5 -25 -8 0 -15 -7 -15 -16 0 -14 3 -14 18 -3
16 12 16 12 0 -5 -16 -18 -18 -18 -47 5 -31 25 -35 44 -10 44 8 0 13 -8 11
-17 -3 -21 9 -23 26 -6 18 18 15 28 -8 28 -11 0 -20 5 -20 10 0 9 22 50 26 50
1 0 10 -12 19 -27z m-2590 7 c3 -5 -1 -10 -10 -10 -9 0 -13 5 -10 10 3 6 8 10
10 10 2 0 7 -4 10 -10z m2255 -10 c0 -5 -7 -7 -15 -4 -8 4 -15 8 -15 10 0 2 7
4 15 4 8 0 15 -4 15 -10z m74 1 c8 -12 -21 -34 -34 -26 -17 11 -11 35 9 35 11
0 22 -4 25 -9z m57 -18 c13 -15 12 -15 -8 -4 -24 12 -29 21 -14 21 5 0 15 -7
22 -17z m125 6 c3 -6 0 -15 -7 -20 -14 -8 -32 9 -23 23 7 11 22 10 30 -3z
m-1696 -3 c0 -3 -4 -8 -10 -11 -5 -3 -10 -1 -10 4 0 6 5 11 10 11 6 0 10 -2
10 -4z m1549 -20 c8 -10 8 -16 -2 -24 -17 -14 -42 2 -34 22 8 20 21 20 36 2z
m-1614 -25 c-3 -6 -11 -11 -16 -11 -5 0 -4 6 3 14 14 16 24 13 13 -3z m1730
10 c6 -11 -29 -34 -38 -25 -3 3 -3 12 0 20 6 16 29 19 38 5z m-1031 -57 l-7
-26 -20 21 c-21 20 -21 21 -1 39 24 24 38 7 28 -34z m728 34 c-7 -7 -12 -8
-12 -2 0 14 12 26 19 19 2 -3 -1 -11 -7 -17z m207 -29 c-35 -28 -71 -35 -62
-12 3 7 16 13 30 13 14 0 22 4 18 10 -4 6 -1 17 5 26 10 11 16 12 27 2 13 -10
10 -16 -18 -39z m-1104 31 c3 -5 1 -10 -4 -10 -6 0 -11 5 -11 10 0 6 2 10 4
10 3 0 8 -4 11 -10z m1276 -47 c12 -13 16 -23 11 -23 -6 0 -19 11 -30 25 -11
14 -27 25 -36 25 -19 0 -21 16 -3 23 6 3 18 -3 24 -12 7 -9 22 -26 34 -38z
m-558 17 c3 -11 -1 -21 -10 -24 -22 -9 -23 -8 -23 24 0 21 4 28 14 24 8 -3 16
-14 19 -24z m440 14 c9 -10 -4 -34 -19 -34 -8 0 -14 6 -14 13 0 22 19 35 33
21z m-563 -8 c0 -2 -8 -10 -17 -17 -16 -13 -17 -12 -4 4 13 16 21 21 21 13z
m609 -22 c-6 -7 -8 -17 -5 -22 3 -5 -5 -8 -17 -7 -12 1 -22 8 -22 16 0 8 8 13
17 11 12 -2 16 2 12 13 -5 11 -2 14 10 9 13 -5 14 -10 5 -20z m-83 -19 c4 -8
14 -15 23 -16 9 0 11 -3 4 -5 -15 -6 -53 13 -53 26 0 16 20 12 26 -5z m125 -8
c-13 -13 -26 -3 -16 12 3 6 11 8 17 5 6 -4 6 -10 -1 -17z"/>
<path d="M5766 2417 c-16 -12 -17 -14 -1 -27 14 -11 18 -11 32 2 8 9 12 21 9
27 -9 14 -18 14 -40 -2z"/>
<path d="M7815 2931 c-143 -37 -272 -74 -287 -81 -40 -19 -53 -57 -87 -262
-37 -221 -38 -254 -12 -263 35 -11 481 113 537 150 26 17 41 77 52 209 l7 91
5 -125 5 -125 33 -3 c17 -2 32 -7 32 -12 0 -11 -59 -60 -72 -60 -6 0 -8 -3 -5
-6 11 -11 83 45 97 74 29 63 62 441 40 467 -20 25 -71 17 -345 -54z"/>
<path d="M2635 2910 c-3 -5 -13 -6 -23 -3 -12 5 -11 -1 7 -20 14 -15 19 -27
13 -27 -28 0 -9 -15 21 -16 17 -1 25 0 16 3 -18 4 -44 53 -29 53 6 0 19 -9 30
-20 26 -26 79 -38 90 -20 7 11 12 10 25 -3 12 -13 21 -14 35 -7 10 5 27 7 37
3 15 -5 16 -3 6 8 -21 21 -15 34 7 14 24 -22 19 -32 -23 -44 -29 -8 -30 -9 -7
-10 14 -1 36 6 49 15 l23 16 -28 29 c-24 25 -29 27 -44 14 -10 -9 -20 -11 -30
-4 -13 8 -13 10 0 19 9 6 10 10 3 10 -18 0 -27 -20 -14 -33 25 -25 9 -29 -17
-4 -35 33 -41 34 -34 2 2 -14 0 -25 -6 -25 -23 0 -42 13 -42 28 0 12 3 13 12
4 17 -17 33 -15 18 3 -15 18 -40 20 -40 3 -1 -8 -6 -6 -14 5 -15 19 -32 22
-41 7z"/>
<path d="M2565 2894 c-17 -13 -18 -16 -5 -24 8 -5 24 -9 35 -8 17 1 17 1 -2 5
-25 5 -30 19 -10 26 6 2 10 7 7 10 -3 3 -14 -1 -25 -9z"/>
<path d="M7048 2893 c7 -3 16 -2 19 1 4 3 -2 6 -13 5 -11 0 -14 -3 -6 -6z"/>
<path d="M3150 2884 c0 -16 47 -59 61 -56 10 2 19 -6 22 -19 6 -24 30 -21 35
4 2 10 -3 17 -12 17 -20 0 -21 26 -1 34 26 10 16 22 -20 23 -37 1 -43 -5 -23
-25 9 -9 8 -12 -5 -12 -9 0 -17 6 -17 14 0 8 -7 17 -16 20 -20 8 -24 8 -24 0z"/>
<path d="M3320 2880 c0 -5 7 -13 16 -18 9 -5 14 -14 10 -21 -12 -18 -26 -13
-36 15 -10 26 -30 29 -38 5 -2 -7 5 -15 17 -18 12 -3 21 -13 21 -23 0 -10 7
-21 16 -24 23 -9 24 -8 24 19 0 14 5 25 10 25 6 0 10 -4 10 -10 0 -19 17 -10
28 15 13 28 2 40 -27 30 -11 -3 -22 -1 -26 5 -8 13 -25 13 -25 0z"/>
<path d="M3415 2848 c-8 -16 -12 -35 -9 -43 8 -19 36 -28 45 -14 4 6 12 9 17
5 6 -4 20 -1 31 6 17 11 23 10 38 -5 17 -17 16 -17 -12 -16 -50 3 -65 0 -65
-15 0 -24 26 -38 40 -21 7 8 21 15 32 15 31 0 33 29 5 58 l-26 26 -21 -25
c-12 -13 -18 -18 -14 -10 4 9 -2 21 -17 33 l-24 19 33 -6 c23 -5 32 -3 32 7 0
8 -13 13 -35 14 -29 0 -38 -4 -50 -28z m40 -28 c3 -5 -1 -10 -9 -10 -8 0 -18
5 -21 10 -3 6 1 10 9 10 8 0 18 -4 21 -10z"/>
<path d="M3521 2857 c9 -19 17 -26 28 -22 18 7 21 8 39 6 6 0 12 -6 12 -12 0
-6 -7 -9 -15 -5 -20 7 -19 -14 1 -28 19 -15 8 -46 -16 -46 -25 0 -33 -15 -16
-29 11 -9 18 -6 33 15 l19 26 36 -38 c30 -31 39 -36 51 -26 12 10 16 8 21 -10
3 -13 6 -32 6 -43 0 -11 7 -31 16 -43 12 -18 19 -20 29 -12 19 16 8 40 -18 40
-11 0 -17 3 -13 7 14 15 41 8 46 -11 9 -32 32 -33 24 -1 l-7 27 27 -17 c14
-10 26 -20 26 -24 1 -3 14 -21 30 -40 25 -29 31 -32 45 -21 14 12 14 15 -4 31
-11 10 -26 17 -33 16 -7 -2 -10 -2 -5 0 15 9 6 21 -18 27 -14 4 -23 11 -20 16
3 6 0 19 -8 30 -13 19 -13 19 -45 0 -39 -24 -42 -24 -42 -3 0 9 -7 25 -16 35
-14 14 -14 20 -4 33 16 19 30 10 30 -20 0 -13 4 -26 9 -29 12 -8 41 4 41 16 0
6 -8 7 -17 4 -10 -4 -14 -4 -11 0 4 3 1 19 -7 34 -8 15 -11 30 -8 34 4 3 -3 6
-15 6 -13 0 -22 -6 -22 -15 0 -8 -4 -15 -10 -15 -5 0 -10 5 -10 12 0 7 -12 25
-27 40 -23 24 -24 28 -8 28 10 0 29 -10 42 -22 l23 -21 0 24 c0 13 -5 31 -11
39 -8 12 -10 10 -5 -10 l5 -25 -18 25 c-16 20 -22 22 -34 12 -12 -10 -16 -10
-21 3 -3 8 -13 15 -22 15 -13 0 -11 -4 7 -20 13 -10 18 -19 12 -20 -7 0 -13 5
-13 11 0 8 -4 8 -14 0 -11 -10 -18 -7 -30 11 -13 19 -19 21 -35 11 -15 -9 -22
-8 -35 5 -16 16 -17 15 -5 -11z m146 -58 c9 -3 7 -12 -7 -34 -16 -24 -20 -26
-20 -11 0 10 -8 24 -17 31 -15 11 -15 15 -3 30 12 14 15 15 24 3 6 -8 17 -17
23 -19z m36 -47 c15 -16 15 -19 -4 -30 -17 -11 -21 -9 -28 10 -15 39 4 51 32
20z"/>
<path d="M8595 2848 c-3 -18 1 -67 9 -108 l14 -75 1 108 c1 104 -12 144 -24
75z"/>
<path d="M3740 2851 c0 -5 7 -15 17 -22 15 -13 15 -12 4 9 -12 23 -21 28 -21
13z"/>
<path d="M3770 2850 c0 -5 5 -10 10 -10 6 0 10 -7 10 -15 0 -8 -4 -15 -10 -15
-18 0 -10 -19 11 -25 11 -4 18 -13 16 -20 -7 -17 12 -35 30 -28 11 4 10 10 -8
29 -11 12 -19 28 -17 35 3 9 10 7 23 -9 18 -21 45 -30 45 -16 0 4 -11 17 -25
30 -35 32 -31 37 9 11 44 -28 53 -47 25 -54 -19 -5 -14 -13 46 -69 67 -63 68
-63 84 -42 17 20 15 23 -58 97 -42 42 -89 83 -105 91 -26 13 -29 13 -42 -5
-14 -18 -14 -18 -14 3 0 13 -6 22 -15 22 -8 0 -15 -4 -15 -10z m160 -94 c0 -3
-4 -8 -10 -11 -5 -3 -10 -1 -10 4 0 6 5 11 10 11 6 0 10 -2 10 -4z m31 -39
c-5 -5 -17 -7 -26 -3 -14 5 -15 9 -5 21 10 12 16 13 27 4 9 -8 10 -16 4 -22z
m49 -32 c0 -3 -9 -5 -20 -5 -11 0 -20 7 -20 15 0 13 4 14 20 5 11 -6 20 -13
20 -15z"/>
<path d="M3870 2849 c0 -5 6 -9 13 -9 20 -1 84 -54 80 -67 -5 -15 15 -17 35
-4 11 6 8 14 -12 36 -14 15 -26 32 -26 37 0 5 -9 4 -19 -2 -11 -5 -22 -6 -25
-1 -8 12 -46 21 -46 10z"/>
<path d="M2510 2841 c0 -4 11 -6 25 -3 14 2 25 6 25 8 0 2 -11 4 -25 4 -14 0
-25 -4 -25 -9z"/>
<path d="M4009 2810 c33 -31 40 -41 27 -45 -9 -3 -23 -7 -31 -10 -20 -6 -19
-25 0 -25 9 0 20 -11 25 -24 13 -36 27 -39 47 -10 l17 27 58 -64 c43 -46 61
-60 69 -52 13 13 4 33 -17 33 -8 0 -14 7 -14 15 0 8 -9 19 -20 25 -11 6 -17
17 -14 24 4 11 0 13 -15 9 -25 -6 -30 21 -6 31 18 7 20 26 2 26 -6 0 -27 17
-46 37 -29 31 -41 37 -80 39 l-46 3 44 -39z m61 -5 c21 -25 1 -31 -22 -7 -18
18 -19 22 -6 22 8 0 21 -7 28 -15z m44 -44 c3 -4 3 -11 0 -14 -8 -8 -34 3 -34
14 0 11 27 12 34 0z m-34 -37 c0 -16 -9 -17 -29 -5 -8 5 -11 16 -7 26 5 14 9
15 21 5 8 -7 15 -19 15 -26z"/>
<path d="M4150 2835 c-9 -11 -16 -13 -24 -5 -13 13 -46 13 -46 0 0 -5 6 -10
13 -10 6 0 32 -18 57 -40 25 -22 51 -38 58 -35 6 2 12 -1 12 -8 0 -20 77 -90
90 -82 14 9 -16 45 -37 45 -8 0 -12 4 -9 9 3 4 -8 20 -24 35 -17 14 -30 23
-30 20 0 -4 -7 -1 -15 6 -24 20 -18 30 11 20 34 -13 34 -13 34 15 0 23 -2 25
-21 14 -21 -11 -38 0 -39 24 0 12 -17 8 -30 -8z m26 -32 c-3 -3 -13 -3 -22 1
-13 5 -14 9 -3 22 11 14 13 14 22 -1 5 -9 6 -19 3 -22z"/>
<path d="M3097 2824 c-3 -4 -2 -14 3 -24 9 -17 4 -30 -12 -30 -4 0 -8 7 -8 15
0 17 -16 20 -25 4 -4 -6 0 -16 8 -22 8 -7 17 -21 21 -31 5 -16 4 -17 -8 -6
-10 8 -24 9 -41 3 l-25 -8 39 -45 c37 -42 41 -44 56 -29 15 15 15 19 3 40 -17
28 -18 61 -1 66 7 3 9 -3 6 -16 -6 -23 3 -26 27 -11 12 7 12 12 2 22 -6 6 -12
18 -12 25 0 21 27 15 33 -7 4 -16 9 -18 29 -11 12 4 24 16 26 25 3 14 -1 16
-24 10 -23 -6 -26 -4 -21 10 8 21 -16 22 -33 1 -13 -15 -35 -21 -26 -7 6 11
-9 34 -17 26z m-20 -120 c-3 -3 -12 -4 -19 -1 -8 3 -5 6 6 6 11 1 17 -2 13 -5z
m18 -24 c-3 -5 -11 -10 -16 -10 -6 0 -7 5 -4 10 3 6 11 10 16 10 6 0 7 -4 4
-10z"/>
<path d="M4251 2800 c-9 -26 -7 -34 9 -50 11 -11 22 -20 25 -20 2 0 25 -22 51
-50 45 -48 64 -55 64 -24 0 8 -9 14 -20 14 -13 0 -20 7 -20 19 0 21 -25 35
-43 25 -9 -5 -9 -3 0 6 13 14 1 32 -26 41 -8 3 -15 17 -17 32 l-3 28 35 -30
c19 -17 49 -48 67 -68 17 -21 36 -41 42 -45 12 -9 27 1 20 13 -9 14 18 10 39
-6 19 -15 19 -15 -2 -15 -25 0 -29 -22 -7 -40 13 -11 18 -10 30 6 21 28 19 35
-22 71 -40 36 -53 41 -53 18 0 -8 -7 -15 -15 -15 -20 0 -19 10 2 26 10 7 15
16 10 20 -4 4 -13 2 -19 -4 -18 -18 -30 -14 -17 6 9 15 7 23 -15 47 -23 25
-30 27 -46 17 -12 -7 -21 -8 -25 -2 -12 19 -33 9 -44 -20z m89 10 c0 -5 -5
-10 -11 -10 -5 0 -7 5 -4 10 3 6 8 10 11 10 2 0 4 -4 4 -10z m16 -37 c-10 -10
-19 5 -10 18 6 11 8 11 12 0 2 -7 1 -15 -2 -18z"/>
<path d="M4506 2822 c-7 -12 64 -103 75 -96 5 3 9 14 9 25 0 10 4 19 8 19 7 0
71 -68 90 -95 4 -6 16 -21 26 -33 19 -22 19 -23 0 -37 -15 -12 -16 -16 -5 -24
9 -6 20 -2 32 10 23 23 24 39 3 39 -8 0 -13 4 -10 9 3 5 -8 24 -24 41 -32 34
-33 55 -3 28 10 -9 24 -13 31 -11 7 3 10 -1 7 -9 -3 -8 3 -22 13 -31 17 -16
20 -16 32 -2 11 14 10 17 -7 21 -11 3 -26 17 -32 30 -6 14 -24 33 -41 42 -16
9 -30 27 -32 39 -3 22 -4 22 -32 8 -16 -9 -34 -14 -40 -11 -6 2 -3 5 6 5 10 1
16 9 15 20 -1 16 -4 17 -20 7 -15 -8 -21 -8 -24 2 -3 6 -9 12 -14 12 -4 0 -6
-7 -3 -15 5 -11 2 -14 -12 -9 -11 4 -24 11 -31 16 -6 5 -14 5 -17 0z m82 -34
c-5 -16 -48 -24 -48 -9 0 8 17 16 43 20 5 0 7 -5 5 -11z m72 -32 c6 -8 19 -12
28 -9 15 6 15 5 3 -10 -17 -21 -13 -22 -41 8 -13 14 -19 25 -13 25 6 0 16 -6
23 -14z"/>
<path d="M4390 2812 c0 -15 38 -44 49 -37 6 3 11 2 11 -4 0 -5 18 -29 41 -53
38 -41 41 -42 54 -24 19 26 3 45 -33 38 -22 -4 -25 -2 -14 9 6 7 12 20 12 29
0 19 -30 50 -48 50 -7 0 -12 -7 -12 -17 0 -15 -1 -15 -18 0 -20 18 -42 22 -42
9z m103 -26 c4 -10 0 -12 -14 -9 -10 3 -16 9 -13 14 8 13 21 11 27 -5z"/>
<path d="M4696 2813 c-11 -12 -6 -22 20 -39 31 -21 56 -5 34 22 -13 15 -15 14
-21 -3 -7 -16 -8 -16 -8 -1 -1 19 -15 31 -25 21z"/>
<path d="M4755 2810 c3 -5 8 -10 11 -10 2 0 4 5 4 10 0 6 -5 10 -11 10 -5 0
-7 -4 -4 -10z"/>
<path d="M4785 2808 c-5 -12 5 -28 33 -57 23 -21 43 -36 46 -33 3 3 6 -1 6 -8
0 -18 48 -61 55 -49 4 5 0 12 -9 15 -8 3 -12 12 -9 20 3 8 -1 14 -9 14 -12 0
-48 33 -48 45 0 16 31 1 48 -22 16 -22 23 -25 33 -16 10 10 8 14 -10 21 -20 7
-21 10 -7 21 13 11 20 7 48 -23 24 -26 35 -32 45 -24 19 15 16 28 -7 28 -20 0
-26 11 -13 23 3 4 13 1 21 -6 13 -10 14 -9 3 13 -12 24 -11 24 4 5 45 -57 67
-75 80 -65 10 9 12 7 9 -8 -3 -10 1 -24 10 -31 12 -10 17 -9 26 9 10 18 8 25
-15 46 -14 13 -31 22 -36 19 -5 -4 -9 -1 -9 6 0 6 -8 9 -20 6 -23 -6 -26 5 -6
22 11 10 16 9 24 -5 7 -12 11 -13 17 -5 5 8 16 2 37 -19 24 -25 32 -29 44 -19
18 15 18 30 0 23 -8 -3 -17 0 -22 7 -4 7 -2 15 4 17 7 2 12 8 12 13 0 6 -6 7
-17 1 -11 -7 -23 -6 -35 2 -14 8 -20 8 -27 -2 -7 -11 -9 -10 -15 3 -4 12 -10
14 -22 7 -9 -5 -25 -7 -36 -4 -10 2 -27 -3 -38 -13 -10 -9 -24 -14 -30 -10 -9
6 -9 10 1 16 7 4 10 11 6 15 -4 4 -15 -1 -26 -10 -18 -16 -20 -16 -29 0 -9 17
-32 12 -32 -7 0 -6 4 -8 9 -5 5 3 11 -1 15 -9 9 -25 -11 -17 -37 15 -29 34
-37 37 -37 15 0 -8 5 -15 10 -15 6 0 10 -8 10 -17 0 -15 -2 -14 -18 3 -11 11
-21 26 -24 34 -5 12 -7 12 -13 -2z"/>
<path d="M3277 2792 c-12 -2 -17 -11 -15 -25 4 -29 24 -32 38 -7 13 25 4 39
-23 32z"/>
<path d="M7031 2791 c-9 -6 -10 -11 -2 -15 19 -12 12 -23 -20 -32 -28 -8 -29
-11 -16 -28 13 -18 16 -18 30 -4 9 9 13 18 10 22 -3 3 7 10 23 16 21 8 25 13
15 19 -7 5 -16 13 -20 19 -4 6 -12 7 -20 3z"/>
<path d="M3360 2778 c0 -15 73 -78 89 -78 20 0 12 32 -9 37 -11 3 -20 10 -20
15 0 5 -4 7 -9 4 -5 -3 -8 2 -7 12 0 11 -7 18 -21 20 -14 2 -23 -2 -23 -10z"/>
<path d="M6956 2781 c-9 -14 21 -33 43 -26 13 4 18 12 14 21 -5 13 -7 13 -14
2 -7 -10 -9 -10 -9 0 0 14 -26 17 -34 3z"/>
<path d="M6902 2773 c-20 -7 -3 -23 26 -24 l27 -1 -28 -10 c-23 -8 -30 -6 -46
14 -15 17 -22 20 -31 11 -9 -8 -7 -12 7 -17 10 -3 36 -29 58 -57 34 -45 39
-48 48 -32 6 10 14 21 19 24 5 3 6 13 2 22 -4 12 -11 14 -31 6 -36 -14 -41
-11 -14 10 13 10 21 23 17 30 -10 16 -39 29 -54 24z"/>
<path d="M3223 2753 c-17 -6 -16 -30 0 -36 8 -3 20 -1 28 4 12 7 12 10 -1 22
-8 8 -21 13 -27 10z"/>
<path d="M4750 2751 c0 -14 28 -33 39 -27 16 10 1 36 -20 36 -10 0 -19 -4 -19
-9z"/>
<path d="M6770 2753 c0 -5 -13 -15 -29 -24 -27 -16 -30 -16 -45 0 -13 13 -18
13 -25 3 -4 -7 -16 -10 -27 -6 -14 4 -15 3 -5 -4 8 -6 10 -12 3 -16 -6 -4 -14
-1 -19 6 -6 10 -45 12 -178 7 l-170 -6 167 1 c145 1 168 -1 177 -16 9 -14 14
-15 36 -5 13 7 25 15 25 19 0 4 7 5 17 1 14 -5 13 -8 -5 -14 -12 -5 -22 -13
-22 -19 0 -18 28 -11 44 11 9 13 21 19 30 16 10 -4 20 1 26 13 7 13 16 17 28
13 15 -6 15 -5 3 10 -14 18 -31 23 -31 10z"/>
<path d="M6816 2735 c2 -21 -3 -27 -27 -32 -21 -4 -29 -11 -27 -22 5 -23 22
-20 57 12 17 15 36 27 42 27 7 0 0 9 -14 20 -32 26 -35 25 -31 -5z"/>
<path d="M2940 2736 c0 -22 19 -29 36 -15 12 10 12 14 2 20 -20 13 -38 10 -38
-5z"/>
<path d="M3320 2740 c0 -5 -8 -10 -17 -10 -13 0 -14 -3 -5 -12 9 -9 18 -9 37
0 30 14 33 32 5 32 -11 0 -20 -4 -20 -10z"/>
<path d="M4150 2744 c0 -3 25 -31 55 -61 30 -31 55 -60 55 -64 0 -5 5 -9 10
-9 20 0 9 29 -21 54 -17 14 -27 26 -23 26 10 0 -41 46 -60 53 -9 4 -16 4 -16
1z"/>
<path d="M3180 2715 c0 -9 7 -18 15 -21 8 -4 12 -10 9 -16 -10 -15 31 -47 47
-37 10 6 10 9 2 9 -7 0 -10 7 -7 15 4 8 10 12 15 9 13 -7 40 16 33 27 -9 14
-41 10 -48 -6 -8 -23 -25 -18 -36 10 -10 28 -30 34 -30 10z"/>
<path d="M3510 2711 c0 -21 26 -36 36 -20 9 15 -3 39 -21 39 -8 0 -15 -9 -15
-19z"/>
<path d="M3845 2720 c-6 -10 30 -51 39 -43 3 3 8 -7 12 -21 4 -18 12 -26 23
-24 18 4 28 38 11 38 -6 0 -23 14 -37 30 -26 31 -38 36 -48 20z"/>
<path d="M3346 2705 c-18 -14 -18 -16 -3 -33 21 -23 22 -42 2 -42 -7 0 -19 -8
-24 -17 -10 -17 -12 -17 -25 0 -19 24 -46 22 -46 -4 0 -17 5 -20 25 -17 25 5
35 -7 13 -15 -16 -5 18 -47 37 -47 23 0 27 31 5 37 -11 3 -20 9 -20 14 0 17
37 9 55 -11 21 -23 44 -25 69 -7 16 12 15 14 -8 36 -15 14 -26 29 -26 35 0 6
-9 17 -20 24 -24 15 -26 32 -4 32 9 0 14 5 12 12 -6 18 -21 19 -42 3z m54
-130 c-11 -14 -14 -12 -26 11 -19 35 -7 51 19 26 17 -18 18 -23 7 -37z"/>
<path d="M4590 2714 c0 -17 100 -112 107 -101 3 6 1 13 -5 15 -7 2 -12 12 -12
22 0 12 -8 20 -22 22 -15 2 -23 10 -23 23 0 13 -8 21 -22 23 -13 2 -23 0 -23
-4z"/>
<path d="M4796 2711 c-3 -5 1 -14 10 -21 11 -10 18 -10 27 -1 9 9 9 14 -3 21
-19 12 -27 12 -34 1z"/>
<path d="M5013 2704 c-3 -8 1 -22 9 -30 13 -13 16 -13 28 0 10 13 10 19 0 31
-16 19 -29 19 -37 -1z"/>
<path d="M7034 2705 c-9 -23 14 -45 26 -25 5 8 8 19 7 24 -6 17 -27 18 -33 1z"/>
<path d="M2988 2702 c-18 -3 -26 -32 -9 -32 10 0 36 29 30 33 -2 2 -12 2 -21
-1z"/>
<path d="M3133 2698 c2 -7 10 -13 17 -13 7 0 15 6 18 13 2 7 -5 12 -18 12 -13
0 -20 -5 -17 -12z"/>
<path d="M3590 2696 c0 -20 16 -29 40 -21 11 4 17 12 13 21 -7 19 -53 19 -53
0z"/>
<path d="M4926 2702 c-2 -4 -1 -14 4 -22 7 -11 11 -11 24 -1 9 8 16 17 16 22
0 11 -37 12 -44 1z"/>
<path d="M6853 2703 c-18 -7 -16 -32 2 -39 20 -8 45 13 38 32 -5 14 -18 17
-40 7z"/>
<path d="M3400 2676 c0 -21 20 -30 33 -17 9 9 8 14 -3 21 -21 14 -30 12 -30
-4z"/>
<path d="M3460 2686 c0 -3 20 -26 44 -52 28 -28 47 -41 51 -34 11 18 -3 40
-25 40 -17 0 -20 4 -15 20 4 14 2 20 -9 20 -8 0 -21 3 -30 6 -9 3 -16 3 -16 0z"/>
<path d="M3000 2669 c-12 -7 -2 -21 50 -69 57 -52 66 -57 77 -43 16 20 6 38
-13 22 -8 -6 -14 -7 -14 -2 0 18 -48 66 -59 59 -6 -4 -9 -2 -5 7 7 20 -18 38
-36 26z"/>
<path d="M3550 2670 c0 -22 14 -40 32 -40 27 0 20 30 -9 41 -13 5 -23 4 -23
-1z"/>
<path d="M3653 2663 c-26 -18 -29 -32 -10 -57 13 -18 15 -18 40 -1 31 20 34
36 10 57 -16 14 -20 14 -40 1z m30 -13 c4 -15 0 -20 -14 -20 -17 0 -18 3 -7
20 7 11 13 20 14 20 1 0 4 -9 7 -20z"/>
<path d="M4074 2669 c-9 -15 11 -33 30 -26 9 4 13 13 10 22 -7 17 -30 20 -40
4z"/>
<path d="M4556 2671 c-3 -4 1 -16 8 -27 12 -15 16 -16 30 -5 12 10 14 17 5 27
-13 16 -35 18 -43 5z"/>
<path d="M4830 2665 c0 -21 30 -31 40 -14 11 17 3 29 -21 29 -10 0 -19 -7 -19
-15z"/>
<path d="M4965 2670 c-4 -6 -1 -17 5 -25 9 -11 17 -12 32 -4 15 8 17 13 7 25
-14 16 -35 18 -44 4z"/>
<path d="M5060 2664 c-11 -12 -10 -18 4 -32 16 -16 18 -16 31 2 11 14 12 23 4
33 -15 17 -24 16 -39 -3z"/>
<path d="M5145 2669 c-4 -5 1 -19 11 -30 15 -16 20 -17 31 -6 8 7 11 21 7 30
-7 19 -39 23 -49 6z"/>
<path d="M6718 2669 c-26 -15 -22 -34 13 -63 24 -21 34 -24 45 -15 8 6 14 18
14 26 0 11 -8 13 -32 8 -31 -7 -32 -6 -13 8 18 14 18 17 5 31 -11 11 -20 12
-32 5z"/>
<path d="M6983 2654 c-26 -26 -26 -27 -7 -41 17 -13 21 -11 41 13 20 26 21 54
1 54 -5 0 -21 -12 -35 -26z"/>
<path d="M3287 2656 c-3 -8 -1 -17 6 -19 17 -6 49 12 42 24 -9 14 -42 11 -48
-5z"/>
<path d="M5631 2646 c-18 -19 -19 -25 -8 -34 19 -16 30 -3 14 16 -10 13 -9 15
10 10 27 -7 38 5 20 21 -11 8 -19 5 -36 -13z"/>
<path d="M6637 2663 c-4 -3 1 -12 11 -19 16 -13 16 -15 -5 -31 l-23 -18 35
-28 c19 -15 35 -24 35 -20 0 5 9 14 20 20 17 11 18 10 13 -4 -4 -9 -15 -25
-24 -34 -18 -18 -19 -18 -33 2 -8 12 -19 18 -25 14 -16 -9 -13 -25 4 -25 8 0
20 -10 26 -22 l12 -22 23 28 c13 15 29 24 34 21 6 -3 13 1 16 10 5 11 -9 31
-45 65 -28 26 -51 53 -51 59 0 12 -13 15 -23 4z m51 -76 c2 -10 -3 -17 -11
-17 -16 0 -30 24 -19 34 10 10 27 1 30 -17z"/>
<path d="M6804 2655 c-9 -23 15 -48 32 -34 19 15 18 35 -2 43 -22 8 -24 8 -30
-9z"/>
<path d="M4919 2644 c-7 -8 -18 -13 -25 -10 -30 12 -20 -13 21 -54 44 -43 45
-43 65 -25 11 10 20 22 20 27 0 18 -31 20 -50 3 -11 -10 -20 -13 -20 -8 0 6 9
17 20 24 19 14 19 15 1 36 -17 20 -20 21 -32 7z m23 -36 c-12 -12 -35 -1 -27
12 3 5 13 6 21 3 10 -4 12 -9 6 -15z"/>
<path d="M6884 2645 c-9 -23 15 -48 32 -34 19 15 18 35 -2 43 -22 8 -24 8 -30
-9z"/>
<path d="M3447 2644 c-9 -10 -9 -44 1 -44 4 0 14 5 22 10 13 8 13 11 -1 25 -8
8 -18 12 -22 9z"/>
<path d="M4050 2640 c0 -5 -7 -10 -15 -10 -22 0 -18 -11 16 -48 29 -32 31 -33
49 -17 19 17 19 18 -8 51 -28 33 -42 42 -42 24z m35 -40 c3 -5 -1 -10 -9 -10
-9 0 -16 5 -16 10 0 6 4 10 9 10 6 0 13 -4 16 -10z"/>
<path d="M4314 2639 c-10 -17 23 -46 38 -31 8 8 8 15 -2 27 -15 18 -26 19 -36
4z"/>
<path d="M4790 2640 c-13 -8 -13 -11 2 -27 21 -20 45 -5 35 21 -7 18 -16 20
-37 6z"/>
<path d="M5106 2631 c-16 -17 -16 -20 0 -35 15 -16 18 -16 35 0 18 16 18 18 3
36 -21 22 -17 22 -38 -1z"/>
<path d="M7042 2636 c1 -10 8 -17 13 -17 15 1 12 24 -3 29 -9 3 -13 -2 -10
-12z"/>
<path d="M8675 2635 c-3 -8 -7 -22 -10 -30 -8 -25 4 -17 20 15 9 18 11 30 5
30 -6 0 -13 -7 -15 -15z"/>
<path d="M3936 2633 c-10 -11 16 -44 30 -39 9 3 14 -1 14 -12 0 -9 4 -23 9
-31 8 -12 12 -12 24 -2 10 8 17 9 22 1 3 -5 -1 -10 -9 -10 -19 0 -21 -14 -3
-28 14 -12 52 10 39 22 -4 4 -7 11 -7 15 0 14 -33 41 -50 41 -9 0 -19 9 -22
19 -5 18 -36 34 -47 24z"/>
<path d="M4115 2630 c-3 -5 -1 -19 6 -31 10 -19 12 -20 27 -6 13 13 13 19 2
31 -14 18 -26 20 -35 6z"/>
<path d="M4405 2629 c-4 -5 1 -19 11 -30 16 -18 19 -18 27 -4 14 27 -23 60
-38 34z"/>
<path d="M4522 2610 c5 -33 -6 -39 -21 -12 -6 9 -11 11 -11 5 0 -7 -6 -13 -14
-13 -24 0 -30 -21 -12 -38 16 -16 18 -16 32 2 7 11 17 17 20 13 3 -3 17 6 30
20 18 20 21 29 13 39 -21 26 -42 17 -37 -16z"/>
<path d="M4607 2633 c-13 -12 -6 -28 28 -67 29 -33 37 -37 50 -26 19 16 19 30
0 30 -8 0 -15 5 -15 11 0 6 -9 8 -22 3 -20 -6 -21 -5 -9 10 11 13 11 19 1 31
-14 16 -23 19 -33 8z"/>
<path d="M5003 2629 c-6 -6 -9 -18 -6 -25 6 -16 39 -19 48 -4 4 6 12 7 18 3 7
-3 3 3 -7 15 -21 24 -37 27 -53 11z"/>
<path d="M5191 2627 c-8 -11 -6 -18 8 -31 16 -15 19 -15 31 -1 10 12 10 18 0
30 -15 19 -24 19 -39 2z"/>
<path d="M6142 2610 c0 -8 6 -31 13 -50 7 -19 13 -28 13 -20 0 8 -6 31 -13 50
-7 19 -13 28 -13 20z"/>
<path d="M3577 2597 c-16 -11 -16 -14 -1 -35 l16 -23 24 22 c18 17 21 25 13
36 -14 16 -30 17 -52 0z"/>
<path d="M4232 2598 c-8 -8 -5 -17 14 -35 29 -27 44 -29 44 -8 0 8 -7 15 -15
15 -8 0 -15 6 -15 14 0 20 -15 27 -28 14z"/>
<path d="M4290 2594 c0 -12 6 -24 14 -27 9 -3 12 -15 9 -31 -6 -28 3 -32 29
-13 15 12 13 17 -17 53 -30 34 -34 36 -35 18z"/>
<path d="M6840 2592 c0 -26 10 -33 31 -21 22 12 14 39 -12 39 -12 0 -19 -7
-19 -18z"/>
<path d="M6921 2597 c-8 -10 -7 -19 4 -33 13 -18 15 -18 31 -2 18 18 13 48 -9
48 -8 0 -20 -6 -26 -13z"/>
<path d="M3477 2594 c-11 -12 13 -43 28 -38 22 9 19 44 -3 44 -10 0 -22 -3
-25 -6z"/>
<path d="M3693 2589 c-27 -10 -28 -13 -7 -34 15 -15 18 -14 31 5 19 26 6 41
-24 29z"/>
<path d="M3807 2594 c-14 -14 -7 -35 11 -32 9 2 17 10 17 17 0 16 -18 25 -28
15z"/>
<path d="M4152 2587 c-7 -8 -7 -17 3 -30 11 -15 14 -15 25 -2 13 15 7 45 -8
45 -5 0 -14 -6 -20 -13z"/>
<path d="M4565 2586 c-19 -14 -13 -36 9 -36 8 0 19 6 25 14 18 21 -10 40 -34
22z"/>
<path d="M4755 2586 c-11 -8 -16 -19 -12 -30 7 -17 27 -22 27 -7 0 5 6 11 14
14 10 4 14 0 13 -14 -1 -10 -7 -19 -14 -19 -7 0 -10 -7 -7 -15 4 -8 11 -15 16
-15 6 0 17 -8 24 -17 11 -16 16 -16 35 -5 16 10 24 11 33 2 8 -8 5 -12 -12
-17 -13 -3 -21 -11 -19 -17 7 -20 32 -17 46 6 12 20 11 24 -15 45 -26 20 -30
21 -45 7 -12 -11 -19 -12 -24 -4 -4 6 0 17 9 23 15 11 13 16 -17 45 -29 28
-35 31 -52 18z"/>
<path d="M4830 2587 c0 -21 12 -28 27 -16 19 16 16 29 -7 29 -11 0 -20 -6 -20
-13z"/>
<path d="M5062 2589 c-26 -10 -25 -35 1 -33 9 1 13 -4 10 -12 -6 -16 22 -19
32 -4 4 6 11 7 17 4 7 -4 7 0 0 13 -18 32 -35 42 -60 32z"/>
<path d="M5152 2588 c-16 -16 -15 -35 2 -41 21 -8 49 26 34 41 -15 15 -21 15
-36 0z"/>
<path d="M5243 2593 c-17 -6 -16 -28 0 -42 11 -8 18 -6 31 8 17 18 17 20 -1
29 -10 5 -24 7 -30 5z"/>
<path d="M6788 2589 c-16 -9 -16 -12 4 -45 18 -31 23 -34 36 -21 17 18 8 52
-12 44 -10 -4 -12 0 -9 14 6 22 5 22 -19 8z"/>
<path d="M4360 2570 c9 -16 15 -18 31 -10 25 14 16 30 -17 30 -22 0 -23 -2
-14 -20z"/>
<path d="M7010 2571 c0 -26 17 -36 35 -21 18 15 8 40 -16 40 -12 0 -19 -7 -19
-19z"/>
<path d="M4870 2570 c-10 -6 -7 -16 17 -43 25 -29 32 -32 47 -22 14 10 14 14
2 24 -7 6 -22 8 -32 5 -16 -6 -17 -5 -6 7 6 7 12 16 12 20 0 12 -26 18 -40 9z"/>
<path d="M3530 2555 c-11 -14 -11 -20 -1 -37 12 -19 12 -20 -9 -5 -20 14 -24
13 -41 -4 -14 -14 -17 -24 -9 -43 13 -36 27 -40 46 -11 20 31 30 32 36 1 4
-18 1 -22 -13 -19 -29 8 -33 -18 -6 -43 32 -29 34 -29 47 -4 8 16 8 18 -4 14
-11 -4 -13 0 -9 15 6 25 18 19 38 -20 9 -16 20 -27 25 -24 5 3 12 -6 16 -20 3
-14 13 -25 21 -25 9 0 13 -6 10 -14 -8 -21 17 -40 31 -23 9 10 3 21 -23 48
-53 51 -59 66 -35 79 11 6 20 7 19 3 -3 -16 1 -38 9 -51 13 -19 37 -5 40 24 2
22 -1 23 -18 14 -16 -8 -20 -8 -20 4 0 15 -26 46 -39 46 -4 0 -12 -9 -17 -20
-9 -20 -11 -19 -43 14 -34 35 -34 36 -16 56 18 20 18 21 -1 41 -19 18 -22 19
-34 4z"/>
<path d="M3764 2554 c4 -12 1 -14 -13 -9 -26 8 -37 -13 -17 -33 16 -16 18 -15
35 6 15 21 19 22 30 9 10 -13 8 -16 -8 -22 -12 -3 -21 -13 -21 -20 0 -25 22
-28 43 -7 19 19 19 23 5 39 -8 10 -18 26 -21 36 -4 9 -14 17 -23 17 -11 0 -14
-5 -10 -16z"/>
<path d="M6883 2563 c-17 -6 -16 -28 2 -43 22 -19 48 5 34 31 -10 19 -15 21
-36 12z"/>
<path d="M3443 2553 c-16 -6 -17 -39 -2 -49 6 -3 18 1 27 10 14 14 14 18 2 30
-8 7 -21 12 -27 9z"/>
<path d="M3621 2547 c-8 -10 -7 -19 4 -33 13 -18 15 -18 31 -2 18 18 13 48 -9
48 -8 0 -20 -6 -26 -13z"/>
<path d="M3833 2544 c-7 -19 17 -37 33 -24 6 6 14 7 17 3 4 -3 7 -3 7 2 0 9
-31 34 -43 35 -4 0 -10 -7 -14 -16z"/>
<path d="M4111 2551 c-10 -7 -11 -13 -2 -30 15 -26 28 -27 36 -1 10 33 -6 48
-34 31z"/>
<path d="M4197 2553 c-9 -9 -9 -43 1 -43 18 1 34 19 29 34 -7 17 -19 21 -30 9z"/>
<path d="M4399 2541 c-23 -18 -22 -51 2 -51 6 0 9 7 5 15 -5 14 1 16 32 15 4
-1 6 -10 4 -20 -4 -23 10 -26 26 -7 8 10 4 20 -17 40 -28 26 -29 26 -52 8z"/>
<path d="M4515 2546 c-21 -15 -14 -46 9 -46 23 0 39 35 22 49 -9 8 -18 7 -31
-3z"/>
<path d="M4603 2553 c-17 -6 -16 -23 1 -46 13 -17 46 -14 46 4 0 17 -34 46
-47 42z"/>
<path d="M4986 2541 c-15 -16 -15 -19 -1 -31 13 -10 19 -10 33 4 10 9 23 16
28 16 5 -1 -2 -10 -15 -21 -18 -15 -21 -23 -13 -31 9 -9 17 -7 32 7 26 23 25
32 -2 56 -29 23 -41 24 -62 0z"/>
<path d="M5192 2548 c-7 -7 -12 -17 -12 -24 0 -19 27 -24 40 -9 7 8 17 12 24
8 6 -3 2 3 -8 15 -22 25 -27 27 -44 10z"/>
<path d="M5277 2547 c-16 -11 -16 -14 -3 -32 14 -19 16 -19 32 -3 9 9 14 24
11 32 -8 19 -18 20 -40 3z"/>
<path d="M6973 2553 c-7 -2 -13 -14 -13 -25 0 -16 5 -19 25 -16 l24 5 -19 -24
c-18 -23 -18 -27 -3 -49 18 -28 26 -30 43 -8 11 13 10 16 -8 21 l-21 5 22 29
c11 16 26 28 33 25 8 -3 10 3 6 17 l-5 21 -15 -22 -14 -21 -21 24 c-12 13 -28
21 -34 18z"/>
<path d="M8635 2549 c-4 -6 -5 -12 -2 -15 2 -3 7 2 10 11 7 17 1 20 -8 4z"/>
<path d="M4696 2535 c-3 -8 -3 -21 0 -29 4 -10 0 -13 -13 -10 -10 3 -27 -2
-38 -9 -16 -13 -17 -17 -6 -31 13 -15 16 -15 37 5 22 20 22 20 28 1 4 -11 13
-23 21 -26 8 -3 15 -15 15 -26 0 -22 24 -27 36 -8 4 7 -2 18 -14 26 -12 8 -22
21 -22 28 0 8 -7 14 -15 14 -20 0 -19 36 1 44 13 5 14 9 4 21 -16 19 -26 19
-34 0z"/>
<path d="M3360 2530 c0 -5 -7 -10 -15 -10 -18 0 -20 -16 -4 -26 6 -3 15 -1 19
5 5 8 14 1 28 -23 23 -40 33 -44 52 -21 10 12 10 15 -3 15 -10 0 -14 6 -11 15
5 11 -1 15 -20 15 -14 0 -26 5 -26 10 0 6 5 10 11 10 5 0 7 5 4 10 -3 6 -13
10 -21 10 -8 0 -14 -4 -14 -10z"/>
<path d="M3920 2537 c0 -2 8 -14 19 -26 24 -27 56 -19 38 10 -10 15 -57 28
-57 16z"/>
<path d="M4230 2515 c-10 -12 -10 -21 0 -45 7 -17 18 -29 24 -27 17 6 19 44 3
67 -13 18 -16 19 -27 5z m30 -25 c0 -5 -4 -10 -10 -10 -5 0 -10 5 -10 10 0 6
5 10 10 10 6 0 10 -4 10 -10z"/>
<path d="M5103 2514 c-8 -21 16 -35 40 -23 14 8 16 13 6 25 -15 19 -38 18 -46
-2z"/>
<path d="M1380 2461 c94 -135 288 -270 551 -384 168 -73 298 -114 430 -136
152 -25 560 -63 984 -91 88 -6 223 -15 300 -20 135 -9 295 -18 724 -41 112 -6
226 -9 255 -8 28 1 60 -1 71 -4 41 -13 1124 -57 1400 -57 178 0 391 13 560 35
253 32 575 85 660 109 81 23 22 18 -170 -14 -349 -59 -670 -95 -928 -106 -307
-13 -2101 70 -3052 141 -713 54 -864 76 -1075 158 -347 135 -499 225 -670 397
l-84 85 44 -64z"/>
<path d="M3577 2507 c-8 -25 6 -47 29 -47 18 0 23 5 21 20 -2 11 -6 23 -10 27
-13 12 -36 12 -40 0z"/>
<path d="M3881 2511 c-8 -5 -11 -16 -8 -25 5 -14 11 -15 27 -6 13 7 20 7 20 0
0 -5 -4 -10 -10 -10 -16 0 -12 -30 5 -36 8 -4 15 -12 15 -19 0 -7 6 -18 14
-25 12 -9 17 -7 28 9 14 23 28 28 28 10 0 -14 26 -39 40 -39 6 0 8 -5 5 -10
-7 -12 22 -26 33 -16 3 4 -21 32 -53 62 -51 47 -60 52 -63 35 -2 -13 -8 -18
-18 -14 -9 3 -12 13 -9 24 6 17 -20 69 -34 69 -3 0 -12 -4 -20 -9z"/>
<path d="M4150 2505 c-9 -11 -10 -19 -3 -26 7 -7 14 -5 23 6 9 11 10 19 3 26
-7 7 -14 5 -23 -6z"/>
<path d="M5233 2507 c-29 -13 -29 -16 8 -55 25 -26 33 -30 50 -22 10 6 19 17
19 24 0 18 -23 27 -41 15 -25 -16 -33 -10 -14 11 23 25 9 42 -22 27z"/>
<path d="M6171 2510 c0 -8 4 -24 9 -35 5 -13 9 -14 9 -5 0 8 -4 24 -9 35 -5
13 -9 14 -9 5z"/>
<path d="M6754 2509 c-3 -6 0 -17 8 -25 13 -13 16 -13 27 0 7 8 10 20 6 26 -8
13 -32 13 -41 -1z"/>
<path d="M6834 2509 c-10 -17 23 -46 37 -32 7 7 9 19 6 27 -7 18 -33 21 -43 5z"/>
<path d="M6930 2505 c-14 -16 -5 -35 16 -35 15 0 20 35 5 44 -5 3 -14 -1 -21
-9z"/>
<path d="M4060 2500 c-12 -7 -8 -15 22 -43 22 -20 47 -33 62 -33 l26 0 -26 22
c-15 14 -32 20 -42 16 -15 -5 -15 -3 -4 11 24 28 -4 48 -38 27z"/>
<path d="M4286 2502 c-9 -15 22 -75 34 -67 13 8 13 35 0 35 -6 0 -14 10 -19
22 -5 14 -10 17 -15 10z"/>
<path d="M4343 2502 c-10 -7 -10 -12 0 -26 12 -16 14 -16 26 -2 20 24 1 45
-26 28z"/>
<path d="M4557 2503 c-12 -12 -7 -41 8 -47 8 -3 20 -17 25 -31 11 -28 22 -31
40 -10 16 19 4 37 -22 33 -12 -2 -23 3 -25 10 -3 8 2 10 14 6 11 -3 14 -2 7 3
-6 4 -13 16 -17 26 -7 18 -19 22 -30 10z"/>
<path d="M4740 2496 c0 -21 20 -30 33 -17 9 9 8 14 -3 21 -21 14 -30 12 -30
-4z"/>
<path d="M4940 2495 c-10 -12 -10 -18 0 -31 12 -13 15 -13 28 0 15 15 10 46
-6 46 -5 0 -15 -7 -22 -15z"/>
<path d="M3983 2492 c-10 -6 -10 -12 1 -28 11 -15 17 -16 27 -7 6 6 9 19 6 27
-7 18 -16 20 -34 8z"/>
<path d="M5148 2486 c-10 -7 -18 -18 -18 -24 0 -21 21 -24 42 -5 21 18 21 18
7 -7 -7 -14 -12 -31 -11 -37 2 -7 -3 -10 -10 -8 -8 3 -22 -1 -33 -9 -20 -15
-20 -15 7 -42 26 -26 28 -27 46 -11 10 9 23 17 28 17 5 -1 0 -8 -11 -18 -11
-9 -21 -25 -23 -35 -3 -16 0 -17 20 -6 46 25 50 41 16 76 -18 18 -29 35 -26
38 3 3 20 -10 39 -29 31 -33 34 -34 51 -19 14 13 15 19 6 30 -6 8 -20 12 -30
9 -15 -3 -17 -2 -8 9 14 17 -1 27 -27 19 -14 -5 -15 -4 -7 5 9 10 6 18 -13 37
-28 28 -23 27 -45 10z m32 -110 c0 -8 -7 -16 -15 -20 -15 -5 -21 14 -8 27 11
12 23 8 23 -7z"/>
<path d="M6626 2484 c-8 -22 -9 -21 19 -21 28 0 31 7 13 25 -16 16 -25 15 -32
-4z"/>
<path d="M4389 2471 c-18 -15 -21 -22 -13 -31 14 -14 54 7 54 27 0 22 -18 23
-41 4z"/>
<path d="M4471 2477 c-6 -8 -8 -17 -4 -20 3 -4 -1 -7 -11 -7 -9 0 -15 -4 -11
-9 3 -5 -6 -11 -20 -13 l-25 -3 26 -37 c31 -43 57 -51 52 -15 -2 17 -9 21 -27
19 -20 -2 -22 0 -11 13 15 18 40 20 40 2 0 -7 9 -18 19 -24 16 -10 18 -9 14 7
-3 11 -11 25 -19 31 -19 15 -18 35 2 43 8 3 12 10 9 16 -8 14 -20 13 -34 -3z"/>
<path d="M5051 2477 c-8 -10 -7 -19 4 -33 13 -18 15 -18 31 -2 18 18 13 48 -9
48 -8 0 -20 -6 -26 -13z"/>
<path d="M6715 2476 c-12 -8 -16 -19 -12 -30 8 -20 26 -17 41 7 16 24 -5 41
-29 23z"/>
<path d="M6800 2475 c-9 -11 -11 -22 -4 -32 13 -21 25 -21 38 -1 8 14 7 21 -5
33 -14 15 -17 15 -29 0z"/>
<path d="M3647 2469 c7 -7 15 -10 18 -7 3 3 -2 9 -12 12 -14 6 -15 5 -6 -5z"/>
<path d="M3823 2464 c-3 -8 -2 -21 1 -30 6 -15 8 -15 26 1 25 23 25 31 -1 38
-12 3 -22 0 -26 -9z"/>
<path d="M4170 2470 c-16 -10 -11 -17 59 -92 19 -21 30 -38 24 -38 -7 0 -15 5
-18 10 -3 6 -17 10 -31 10 -24 0 -24 -1 -8 -25 20 -30 35 -32 59 -5 10 11 22
17 27 14 5 -3 17 0 26 8 15 12 16 11 4 -4 -9 -11 -10 -23 -5 -33 8 -13 12 -12
32 9 l23 24 -27 18 c-22 15 -30 15 -47 5 -11 -7 -22 -10 -25 -7 -3 2 4 11 16
18 25 16 27 31 4 49 -15 12 -16 12 -11 -3 4 -10 1 -19 -8 -22 -30 -11 -42 -7
-37 14 4 16 0 20 -17 20 -18 0 -20 3 -11 13 18 22 -2 34 -29 17z"/>
<path d="M6883 2464 c-3 -8 1 -22 9 -30 13 -13 16 -13 28 0 10 13 10 19 0 31
-16 19 -29 19 -37 -1z"/>
<path d="M3345 2460 c-7 -12 30 -50 50 -50 20 0 19 5 -9 34 -26 28 -32 31 -41
16z"/>
<path d="M4775 2460 c-8 -13 3 -30 20 -30 14 0 27 24 18 34 -10 9 -31 7 -38
-4z"/>
<path d="M4016 2452 c-9 -15 12 -35 29 -28 14 5 15 9 5 21 -14 17 -26 19 -34
7z"/>
<path d="M4510 2444 c0 -20 27 -47 40 -39 7 4 7 12 0 24 -13 25 -40 35 -40 15z"/>
<path d="M4898 2436 c-15 -21 -15 -23 2 -34 14 -9 21 -7 34 7 20 22 20 28 -1
40 -14 7 -22 4 -35 -13z"/>
<path d="M4970 2450 c0 -5 12 -20 27 -34 22 -21 30 -23 42 -13 14 11 14 10 2
-5 -11 -15 -11 -21 -1 -34 12 -13 15 -13 29 0 14 14 11 20 -24 56 -36 37 -75
53 -75 30z"/>
<path d="M6190 2445 c-1 -20 51 -163 66 -181 9 -10 12 -13 8 -5 -4 7 -22 55
-40 105 -18 50 -33 87 -34 81z"/>
<path d="M6675 2440 c-4 -6 -14 -9 -23 -8 -13 2 -17 -5 -18 -34 -1 -21 2 -38
7 -38 15 0 20 20 9 42 -10 22 -10 22 4 4 18 -22 46 -15 46 13 0 23 -16 36 -25
21z"/>
<path d="M3435 2430 c-4 -6 -1 -18 6 -26 12 -14 14 -14 26 2 7 9 10 21 7 25
-7 12 -31 11 -39 -1z"/>
<path d="M4323 2424 c-3 -8 -1 -20 6 -27 14 -14 47 15 37 32 -10 16 -36 13
-43 -5z"/>
<path d="M5090 2425 c-20 -24 1 -38 28 -19 23 16 21 34 -2 34 -8 0 -19 -7 -26
-15z"/>
<path d="M6744 2426 c-18 -14 -18 -16 -2 -32 17 -17 18 -17 38 1 15 14 17 21
9 32 -14 17 -21 16 -45 -1z"/>
<path d="M6836 2431 c-6 -9 2 -41 11 -41 2 0 13 5 24 11 16 8 18 13 8 25 -13
16 -35 18 -43 5z"/>
<path d="M6933 2433 c-17 -6 -16 -32 1 -39 8 -3 24 0 36 6 21 11 21 12 3 25
-20 16 -22 16 -40 8z"/>
<path d="M3776 2414 c-4 -11 1 -18 14 -21 11 -3 20 -14 20 -25 0 -15 5 -18 23
-14 12 3 16 3 10 0 -19 -9 -16 -37 3 -30 9 3 18 6 20 6 14 0 0 32 -21 48 -14
11 -25 24 -25 30 0 5 -7 13 -16 16 -21 8 -21 8 -28 -10z"/>
<path d="M3863 2423 c-16 -6 -17 -29 -3 -38 6 -4 17 -1 25 5 11 9 15 9 15 1 0
-6 -4 -11 -10 -11 -5 0 -7 -7 -3 -16 5 -14 8 -14 20 -1 13 13 13 18 -2 41 -18
27 -21 28 -42 19z"/>
<path d="M4067 2424 c-4 -4 -7 -13 -7 -20 0 -17 37 -37 44 -25 8 12 -27 54
-37 45z"/>
<path d="M4810 2416 c0 -24 26 -38 40 -22 6 9 9 20 5 26 -9 15 -45 12 -45 -4z"/>
<path d="M5296 2421 c-18 -7 -17 -9 8 -34 31 -31 44 -34 53 -11 4 12 -27 56
-39 53 -2 0 -12 -4 -22 -8z"/>
<path d="M5410 2411 c0 -27 19 -36 37 -18 18 18 9 37 -18 37 -12 0 -19 -7 -19
-19z"/>
<path d="M7027 2423 c-4 -3 -7 -13 -7 -21 0 -12 3 -12 15 -2 8 7 15 16 15 21
0 11 -14 12 -23 2z"/>
<path d="M4130 2413 c0 -17 24 -43 41 -43 30 0 20 32 -13 41 -16 4 -28 5 -28
2z"/>
<path d="M4365 2396 c-11 -8 -16 -20 -12 -30 8 -21 20 -20 41 3 14 15 14 20 3
29 -10 9 -18 8 -32 -2z"/>
<path d="M4561 2401 c-15 -10 -8 -41 9 -41 15 0 25 29 14 40 -5 5 -15 5 -23 1z"/>
<path d="M4946 2395 c-19 -14 -16 -45 4 -45 19 0 42 30 36 45 -7 18 -16 18
-40 0z"/>
<path d="M6797 2392 c-10 -10 -17 -24 -17 -30 0 -18 25 -14 44 7 14 15 14 20
3 30 -11 8 -18 7 -30 -7z"/>
<path d="M6884 2395 c-18 -13 -18 -15 -1 -32 15 -15 19 -15 31 -3 12 12 12 18
2 32 -11 15 -15 16 -32 3z"/>
<path d="M3385 2391 c-6 -11 33 -36 42 -27 3 3 3 12 0 21 -7 17 -33 20 -42 6z"/>
<path d="M4774 2385 c-10 -25 9 -37 31 -21 18 13 18 14 -3 25 -18 10 -23 9
-28 -4z"/>
<path d="M4851 2386 c-9 -10 -8 -16 4 -26 13 -11 19 -10 33 4 15 15 15 18 2
26 -20 13 -26 12 -39 -4z"/>
<path d="M5451 2386 c-9 -10 -8 -16 3 -25 10 -9 16 -8 25 3 9 10 8 16 -3 25
-10 9 -16 8 -25 -3z"/>
<path d="M3972 2381 c-11 -6 -8 -14 11 -34 28 -31 38 -27 28 10 -8 30 -20 37
-39 24z"/>
<path d="M5390 2380 c0 -6 -7 -10 -15 -10 -28 0 -28 -30 -1 -55 15 -14 28 -25
29 -25 2 0 4 11 5 26 1 14 -2 23 -8 19 -6 -3 -10 -1 -10 4 0 24 22 9 36 -24
15 -37 21 -40 42 -27 16 10 5 42 -14 42 -8 0 -14 7 -14 15 0 8 -7 15 -16 15
-8 0 -13 4 -10 9 3 5 -1 11 -9 15 -8 3 -15 1 -15 -4z"/>
<path d="M6685 2379 c-4 -5 1 -19 11 -30 15 -17 19 -18 32 -5 8 8 12 22 9 30
-7 18 -42 22 -52 5z"/>
<path d="M6967 2383 c-4 -3 -2 -12 4 -20 9 -10 15 -10 25 -2 8 6 14 15 14 20
0 10 -34 12 -43 2z"/>
<path d="M3575 2370 c-3 -5 6 -17 20 -26 14 -9 25 -23 25 -30 0 -8 7 -14 15
-14 8 0 15 6 15 14 0 8 -7 16 -15 20 -8 3 -15 12 -15 20 0 7 -7 17 -16 20 -20
8 -22 8 -29 -4z"/>
<path d="M3720 2355 c-10 -12 -10 -18 0 -30 16 -19 30 -10 30 21 0 27 -12 31
-30 9z"/>
<path d="M3913 2355 c-3 -9 -3 -18 0 -22 10 -10 37 6 37 22 0 20 -29 20 -37 0z"/>
<path d="M4107 2358 c-2 -8 1 -21 7 -30 15 -21 39 -8 34 18 -4 22 -33 31 -41
12z"/>
<path d="M4507 2353 c-23 -12 -25 -17 -17 -34 13 -24 16 -24 46 0 19 15 21 21
11 33 -10 13 -16 13 -40 1z"/>
<path d="M4986 2348 c-16 -18 -16 -22 -3 -35 13 -13 17 -13 37 7 17 17 19 24
9 36 -15 18 -20 17 -43 -8z"/>
<path d="M5282 2358 c-16 -16 -15 -35 2 -41 21 -8 49 26 34 41 -15 15 -21 15
-36 0z"/>
<path d="M6833 2352 c-31 -24 -16 -50 18 -32 32 17 30 15 23 34 -8 20 -13 20
-41 -2z"/>
<path d="M4397 2353 c-24 -23 12 -55 38 -33 12 10 13 16 4 26 -12 15 -31 18
-42 7z"/>
<path d="M4586 2351 c-3 -4 0 -15 7 -24 15 -21 43 -6 34 17 -7 17 -32 22 -41
7z"/>
<path d="M4804 2349 c-3 -6 -2 -15 3 -20 13 -13 43 -1 43 17 0 16 -36 19 -46
3z"/>
<path d="M4890 2350 c-13 -8 -11 -13 11 -34 15 -14 29 -30 31 -37 5 -16 28 -2
28 17 0 8 -8 18 -17 22 -10 4 -18 13 -18 21 0 18 -16 23 -35 11z"/>
<path d="M5075 2350 c-3 -5 0 -18 7 -29 11 -18 13 -18 24 -3 6 9 10 22 7 29
-6 15 -29 17 -38 3z"/>
<path d="M5475 2351 c-9 -16 3 -31 26 -31 14 0 19 6 17 17 -4 20 -33 29 -43
14z"/>
<path d="M6642 2333 c-21 -23 -22 -43 -2 -43 5 0 7 7 4 15 -9 22 15 18 35 -6
16 -19 18 -20 31 -5 12 15 11 18 -8 23 -12 3 -20 9 -17 13 3 4 -1 12 -8 18 -9
8 -18 4 -35 -15z"/>
<path d="M6920 2345 c-7 -8 -18 -15 -24 -15 -6 0 -21 -8 -33 -18 -17 -13 -20
-21 -13 -32 9 -13 13 -12 29 7 16 20 21 21 31 8 10 -12 9 -15 -8 -15 -26 0
-34 -11 -22 -30 8 -12 13 -11 30 8 11 12 24 22 27 22 3 0 -2 -9 -12 -20 -12
-14 -15 -24 -9 -30 7 -7 16 -4 28 9 17 19 17 20 -1 38 -11 11 -23 27 -26 37
-6 14 -3 16 14 11 24 -8 46 15 26 27 -17 11 -23 10 -37 -7z"/>
<path d="M7001 2351 c-12 -8 -12 -12 -2 -25 12 -15 15 -15 26 1 20 28 5 42
-24 24z"/>
<path d="M3880 2332 c0 -6 -2 -17 -5 -24 -4 -9 2 -14 15 -15 24 -2 26 19 5 37
-9 8 -15 8 -15 2z"/>
<path d="M6735 2329 c-4 -5 11 -28 34 -50 35 -35 43 -39 62 -29 20 11 20 12 3
31 -9 10 -23 19 -29 19 -7 0 -15 9 -18 20 -5 21 -41 28 -52 9z"/>
<path d="M3947 2323 c-4 -3 0 -15 9 -25 19 -20 47 -7 37 18 -5 14 -34 19 -46
7z"/>
<path d="M4082 2316 c1 -10 8 -17 13 -17 15 1 12 24 -3 29 -9 3 -13 -2 -10
-12z"/>
<path d="M4347 2313 c-12 -11 -7 -41 7 -46 21 -8 49 26 34 41 -13 13 -31 16
-41 5z"/>
<path d="M4437 2313 c-23 -22 14 -53 39 -32 11 9 11 15 3 25 -12 15 -31 18
-42 7z"/>
<path d="M4836 2312 c-9 -14 12 -35 28 -29 23 9 20 37 -3 37 -11 0 -22 -4 -25
-8z"/>
<path d="M5231 2311 c-17 -11 -7 -41 12 -41 19 0 40 26 32 40 -8 12 -25 13
-44 1z"/>
<path d="M6956 2311 c-3 -4 0 -16 7 -25 12 -16 14 -16 26 -2 7 8 10 20 6 26
-8 12 -32 13 -39 1z"/>
<path d="M4250 2301 c0 -5 7 -14 15 -21 18 -15 42 1 31 19 -8 13 -46 15 -46 2z"/>
<path d="M3996 2283 c-12 -12 -6 -32 13 -42 15 -9 20 -7 24 9 5 20 -24 46 -37
33z"/>
<path d="M4220 2272 c0 -24 8 -32 26 -25 20 7 17 20 -6 33 -17 9 -20 8 -20 -8z"/>
<path d="M4715 2280 c3 -5 0 -10 -6 -12 -6 -2 -3 -13 10 -28 11 -14 20 -20 21
-13 0 6 -6 14 -12 17 -7 3 -1 4 15 2 28 -3 32 1 19 20 -8 12 -55 26 -47 14z"/>
<path d="M5276 2272 c-15 -18 -15 -20 2 -35 26 -23 37 -21 40 7 3 35 -21 51
-42 28z"/>
<path d="M5402 2282 c-12 -8 -7 -42 7 -42 14 0 29 23 24 36 -6 16 -13 17 -31
6z"/>
<path d="M5478 2276 c-20 -15 -23 -32 -8 -41 13 -8 49 26 43 41 -6 17 -13 17
-35 0z"/>
<path d="M4393 2273 c-19 -7 -16 -26 6 -45 18 -15 20 -14 32 9 11 20 11 26 -1
33 -16 11 -19 11 -37 3z"/>
<path d="M4484 2265 c-10 -25 12 -41 33 -24 17 13 17 13 4 -4 -19 -24 0 -47
24 -27 14 12 14 15 -2 32 -29 33 -52 41 -59 23z"/>
<path d="M6660 2270 c0 -5 5 -10 10 -10 6 0 10 5 10 10 0 6 -4 10 -10 10 -5 0
-10 -4 -10 -10z"/>
<path d="M6707 2273 c-11 -10 23 -42 39 -36 19 7 18 29 -2 37 -20 8 -29 8 -37
-1z"/>
<path d="M3880 2261 c0 -6 5 -13 10 -16 6 -3 10 1 10 9 0 9 -4 16 -10 16 -5 0
-10 -4 -10 -9z"/>
<path d="M4297 2263 c-3 -5 -2 -15 3 -22 10 -17 43 -6 38 12 -6 15 -34 22 -41
10z"/>
<path d="M4870 2258 c1 -32 80 -94 80 -64 0 8 6 16 13 19 10 4 10 7 0 18 -10
10 -16 10 -25 1 -17 -17 -39 -15 -32 3 4 8 11 12 18 8 6 -4 5 1 -3 10 -16 20
-51 23 -51 5z"/>
<path d="M4970 2256 c0 -15 27 -29 40 -21 5 3 7 12 3 20 -7 19 -43 20 -43 1z"/>
<path d="M6831 2236 c-9 -10 -8 -16 4 -26 13 -11 19 -11 32 2 16 17 10 38 -11
38 -8 0 -19 -6 -25 -14z"/>
<path d="M6955 2230 c-14 -15 -16 -23 -7 -32 15 -15 42 -2 42 21 0 29 -15 33
-35 11z"/>
<path d="M4347 2229 c-14 -8 -16 -14 -6 -25 14 -17 35 -18 45 -3 11 18 -18 39
-39 28z"/>
<path d="M6600 2231 c0 -6 4 -13 10 -16 6 -3 7 1 4 9 -7 18 -14 21 -14 7z"/>
<path d="M6755 2226 c-15 -11 -15 -13 -1 -25 13 -11 19 -11 31 -1 8 7 15 16
15 20 0 15 -28 19 -45 6z"/>
<path d="M6880 2205 c-19 -23 -1 -39 21 -19 10 9 16 21 13 25 -8 13 -20 11
-34 -6z"/>
<path d="M7378 1883 c6 -2 18 -2 25 0 6 3 1 5 -13 5 -14 0 -19 -2 -12 -5z"/>
<path d="M6090 1566 c0 -2 8 -10 18 -17 15 -13 16 -12 3 4 -13 16 -21 21 -21
13z"/>
<path d="M7373 7886 c4 -10 7 -26 7 -37 0 -10 5 -19 11 -19 15 0 6 63 -10 68
-10 3 -12 0 -8 -12z"/>
<path d="M7565 7733 c-16 -15 -29 -31 -27 -36 1 -4 -1 -6 -6 -3 -5 3 -22 0
-38 -6 -25 -9 -40 -6 -94 15 -61 25 -85 28 -64 7 13 -13 122 -50 146 -50 26 0
80 29 73 39 -2 5 3 15 13 22 15 13 16 12 3 -3 -7 -10 -9 -18 -4 -18 14 0 54
46 46 53 -10 11 -16 8 -48 -20z m45 13 c0 -3 -4 -8 -10 -11 -5 -3 -10 -1 -10
4 0 6 5 11 10 11 6 0 10 -2 10 -4z"/>
</g>
</svg>
